<svg viewBox="0 0 177 216" xmlns="http://www.w3.org/2000/svg"><title>analytics</title><g transform="translate(1 1)" stroke="#979797" stroke-width="2" fill="none" fill-rule="evenodd"><path d="M6.818 99.798l16.056 15.123L47.76 81.492l19.267 20.694 20.873-34.225 40.14 53.327 40.141-81.184"/><path d="M6 1.234v162.238M47 2.03v160.646M88 1.234v161.442M128 1.234V161.88M168 1.104v162.368" stroke-linecap="square"/><ellipse fill="#FFF" cx="6.818" cy="99.798" rx="6.422" ry="6.367"/><path d="M6.816 40.648h159.763M6.816.991h159.763M6.013 121.945h160.566M6.013 163.585h160.566M6.015 82.288h160.562" stroke-linecap="square"/><ellipse fill="#FFF" cx="128.042" cy="120.492" rx="6.422" ry="6.367"/><ellipse fill="#FFF" cx="168.182" cy="40.9" rx="6.422" ry="6.367"/><ellipse fill="#FFF" cx="87.901" cy="67.961" rx="6.422" ry="6.367"/><ellipse fill="#FFF" cx="47.761" cy="81.492" rx="6.422" ry="6.367"/></g></svg>