<svg viewBox="0 0 216 222" xmlns="http://www.w3.org/2000/svg" xmlns:xlink="http://www.w3.org/1999/xlink"><defs><path d="M50.312 84.327v-5.184l36.432-16.2v7.92L62.408 81.735l24.336 10.872v7.92l-36.432-16.2zm46.32 22.68l-5.976-2.16 22.464-55.872 5.976 2.304-22.464 55.728zm62.372-27.864v5.184l-36.432 16.2v-7.92l24.336-10.872-24.336-10.872v-7.92l36.432 16.2z" id="a"/></defs><g transform="translate(-2)" stroke="#979797" stroke-width="2" fill="none" fill-rule="evenodd"><rect fill="#FFF" x="18" y=".952" width="175" height="148.095" rx="8"/><rect x="25.241" y="31.551" width="160.517" height="95" rx="8"/><ellipse fill="#FFF" cx="32.483" cy="15.416" rx="4.828" ry="4.896"/><ellipse fill="#FFF" cx="52.379" cy="15.416" rx="4.828" ry="4.896"/><ellipse fill="#FFF" cx="72.276" cy="15.416" rx="4.828" ry="4.896"/><rect x="18" y="156" width="175" height="13" rx="8"/><use xlink:href="#a"/><use xlink:href="#a"/><use xlink:href="#a"/></g></svg>