<svg width="191" height="113" viewBox="0 0 191 113" xmlns="http://www.w3.org/2000/svg"><title>content-plan</title><g fill="none" fill-rule="evenodd"><g stroke="#979797" stroke-linecap="square"><path d="M16.295 97.265h41.424" stroke-width="2"/><path d="M15.564 104.222H58.51M15.564 111.811H58.51"/></g><g stroke="#979797" stroke-linecap="square"><path d="M72.295 97.265h41.424" stroke-width="2"/><path d="M71.564 104.222h42.945M71.564 111.811h42.945"/></g><g stroke="#979797" stroke-linecap="square"><path d="M132.295 97.269h41.424" stroke-width="2"/><path d="M131.564 104.246h42.945M131.564 111.857h42.945"/></g><g transform="translate(79.53 .827)" fill="#12A9A6"><ellipse cx="13.983" cy="7.657" rx="7.712" ry="7.657"/><path d="M.268 26.836S.086 12.023 13.613 12.023c13.527 0 13.122 14.813 13.122 14.813H.268z"/></g><path d="M71.946 27.761a7.607 7.607 0 0 0 2.342-5.495c0-4.229-3.453-7.657-7.712-7.657-4.26 0-7.713 3.428-7.713 7.657 0 2.043.806 3.899 2.12 5.272-8.254 3.217-8.123 13.907-8.123 13.907h26.467s.28-10.223-7.381-13.684zM125.823 27.761a7.607 7.607 0 0 0 2.342-5.495c0-4.229-3.453-7.657-7.712-7.657-4.26 0-7.713 3.428-7.713 7.657 0 2.043.806 3.899 2.12 5.272-8.254 3.217-8.123 13.907-8.123 13.907h26.467s.28-10.223-7.381-13.684z" stroke="#FFF" fill="#D8D8D8"/><path d="M.826 75.5H189.24" stroke="#979797" stroke-linecap="square"/><path d="M37.5 83a7.5 7.5 0 1 0 0-15 7.5 7.5 0 0 0 0 15zM93.5 83a7.5 7.5 0 1 0 0-15 7.5 7.5 0 0 0 0 15zM151.5 83a7.5 7.5 0 1 0 0-15 7.5 7.5 0 0 0 0 15z" stroke="#FFF" fill="#12A9A6"/><path stroke="#979797" d="M185 70l5 5.077L185 81"/></g></svg>