<svg width="191" height="112" viewBox="0 0 191 112" xmlns="http://www.w3.org/2000/svg"><title>content-plan</title><g fill="none" fill-rule="evenodd"><g stroke="#979797" stroke-linecap="square"><path d="M16.295 96.265h41.424" stroke-width="2"/><path d="M15.564 103.222H58.51M15.564 110.811H58.51"/></g><g stroke="#979797" stroke-linecap="square"><path d="M72.295 96.265h41.424" stroke-width="2"/><path d="M71.564 103.222h42.945M71.564 110.811h42.945"/></g><g stroke="#979797" stroke-linecap="square"><path d="M132.295 96.269h41.424" stroke-width="2"/><path d="M131.564 103.246h42.945M131.564 110.857h42.945"/></g><g transform="translate(80)" fill="#12A9A6"><circle cx="13.5" cy="7.5" r="7.5"/><path d="M0 27s-.178-15 13.11-15c13.287 0 12.889 15 12.889 15H0z"/></g><path d="M71.544 27.05a7.5 7.5 0 1 0-10.326-.227C52.869 29.964 53 41.001 53 41.001H79s.28-10.539-7.455-13.95zM124.544 27.05a7.5 7.5 0 1 0-10.326-.227C105.869 29.964 106 41.001 106 41.001H132s.28-10.539-7.455-13.95z" stroke="#FFF" fill="#D8D8D8"/><path d="M.826 74.5H189.24" stroke="#979797" stroke-linecap="square"/><path d="M37.5 82a7.5 7.5 0 1 0 0-15 7.5 7.5 0 0 0 0 15zM93.5 82a7.5 7.5 0 1 0 0-15 7.5 7.5 0 0 0 0 15zM151.5 82a7.5 7.5 0 1 0 0-15 7.5 7.5 0 0 0 0 15z" stroke="#FFF" fill="#12A9A6"/><path stroke="#979797" d="M185 69l5 5.077L185 80"/></g></svg>