<svg viewBox="0 0 227 254" version="1.1" xmlns="http://www.w3.org/2000/svg" xmlns:xlink="http://www.w3.org/1999/xlink" xmlns:sketch="http://www.bohemiancoding.com/sketch/ns">
    <!-- Generator: Sketch 3.3.3 (12072) - http://www.bohemiancoding.com/sketch -->
    <title>design</title>
    <desc>Created with Sketch.</desc>
    <defs></defs>
    <g id="Page-1" stroke="none" stroke-width="1" fill="none" fill-rule="evenodd" sketch:type="MSPage">
        <g id="design" sketch:type="MSLayerGroup" transform="translate(2.000000, 1.000000)">
            <g id="Group" sketch:type="MSShapeGroup">
                <g id="ruler">
                    <rect id="Rectangle-6" stroke="#979797" stroke-width="2" fill="#FFFFFF" x="0" y="1" width="38" height="201" rx="10"></rect>
                    <path d="M0.5,15.5 L14.5,15.5" id="Line" stroke="#000000" stroke-linecap="square"></path>
                    <path d="M0.5,15.5 L14.5,15.5" id="Line-Copy-4" stroke="#000000" stroke-linecap="square"></path>
                    <path d="M0.5,27.5 L14.5,27.5" id="Line-Copy-5" stroke="#000000" stroke-linecap="square"></path>
                    <path d="M0.5,18.5 L8.5,18.5" id="Line-Copy" stroke="#000000" stroke-linecap="square"></path>
                    <path d="M0.5,21.5 L8.5,21.5" id="Line-Copy-2" stroke="#000000" stroke-linecap="square"></path>
                    <path d="M0.5,27.5 L14.5,27.5" id="Line-Copy-8" stroke="#000000" stroke-linecap="square"></path>
                    <path d="M0.5,18.5 L8.5,18.5" id="Line-Copy-6" stroke="#000000" stroke-linecap="square"></path>
                    <path d="M0.5,21.5 L8.5,21.5" id="Line-Copy-7" stroke="#000000" stroke-linecap="square"></path>
                    <path d="M0.5,24.5 L8.5,24.5" id="Line-Copy-3" stroke="#000000" stroke-linecap="square"></path>
                    <path d="M0.5,39.5 L14.5,39.5" id="Line-Copy-8" stroke="#000000" stroke-linecap="square"></path>
                    <path d="M0.5,30.5 L8.5,30.5" id="Line-Copy-6" stroke="#000000" stroke-linecap="square"></path>
                    <path d="M0.5,33.5 L8.5,33.5" id="Line-Copy-7" stroke="#000000" stroke-linecap="square"></path>
                    <path d="M0.5,36.5 L8.5,36.5" id="Line-Copy-3" stroke="#000000" stroke-linecap="square"></path>
                    <path d="M0.5,51.5 L14.5,51.5" id="Line-Copy-8" stroke="#000000" stroke-linecap="square"></path>
                    <path d="M0.5,42.5 L8.5,42.5" id="Line-Copy-6" stroke="#000000" stroke-linecap="square"></path>
                    <path d="M0.5,45.5 L8.5,45.5" id="Line-Copy-7" stroke="#000000" stroke-linecap="square"></path>
                    <path d="M0.5,48.5 L8.5,48.5" id="Line-Copy-3" stroke="#000000" stroke-linecap="square"></path>
                    <path d="M0.5,63.5 L14.5,63.5" id="Line-Copy-8" stroke="#000000" stroke-linecap="square"></path>
                    <path d="M0.5,54.5 L8.5,54.5" id="Line-Copy-6" stroke="#000000" stroke-linecap="square"></path>
                    <path d="M0.5,57.5 L8.5,57.5" id="Line-Copy-7" stroke="#000000" stroke-linecap="square"></path>
                    <path d="M0.5,60.5 L8.5,60.5" id="Line-Copy-3" stroke="#000000" stroke-linecap="square"></path>
                    <path d="M0.5,75.5 L14.5,75.5" id="Line-Copy-8" stroke="#000000" stroke-linecap="square"></path>
                    <path d="M0.5,66.5 L8.5,66.5" id="Line-Copy-6" stroke="#000000" stroke-linecap="square"></path>
                    <path d="M0.5,69.5 L8.5,69.5" id="Line-Copy-7" stroke="#000000" stroke-linecap="square"></path>
                    <path d="M0.5,72.5 L8.5,72.5" id="Line-Copy-3" stroke="#000000" stroke-linecap="square"></path>
                    <path d="M0.5,87.5 L14.5,87.5" id="Line-Copy-8" stroke="#000000" stroke-linecap="square"></path>
                    <path d="M0.5,78.5 L8.5,78.5" id="Line-Copy-6" stroke="#000000" stroke-linecap="square"></path>
                    <path d="M0.5,81.5 L8.5,81.5" id="Line-Copy-7" stroke="#000000" stroke-linecap="square"></path>
                    <path d="M0.5,84.5 L8.5,84.5" id="Line-Copy-3" stroke="#000000" stroke-linecap="square"></path>
                    <path d="M0.5,99.5 L14.5,99.5" id="Line-Copy-8" stroke="#000000" stroke-linecap="square"></path>
                    <path d="M0.5,90.5 L8.5,90.5" id="Line-Copy-6" stroke="#000000" stroke-linecap="square"></path>
                    <path d="M0.5,93.5 L8.5,93.5" id="Line-Copy-7" stroke="#000000" stroke-linecap="square"></path>
                    <path d="M0.5,96.5 L8.5,96.5" id="Line-Copy-3" stroke="#000000" stroke-linecap="square"></path>
                    <path d="M0.5,111.5 L14.5,111.5" id="Line-Copy-8" stroke="#000000" stroke-linecap="square"></path>
                    <path d="M0.5,102.5 L8.5,102.5" id="Line-Copy-6" stroke="#000000" stroke-linecap="square"></path>
                    <path d="M0.5,105.5 L8.5,105.5" id="Line-Copy-7" stroke="#000000" stroke-linecap="square"></path>
                    <path d="M0.5,108.5 L8.5,108.5" id="Line-Copy-3" stroke="#000000" stroke-linecap="square"></path>
                    <path d="M0.5,123.5 L14.5,123.5" id="Line-Copy-8" stroke="#000000" stroke-linecap="square"></path>
                    <path d="M0.5,114.5 L8.5,114.5" id="Line-Copy-6" stroke="#000000" stroke-linecap="square"></path>
                    <path d="M0.5,117.5 L8.5,117.5" id="Line-Copy-7" stroke="#000000" stroke-linecap="square"></path>
                    <path d="M0.5,120.5 L8.5,120.5" id="Line-Copy-3" stroke="#000000" stroke-linecap="square"></path>
                    <path d="M0.5,135.5 L14.5,135.5" id="Line-Copy-8" stroke="#000000" stroke-linecap="square"></path>
                    <path d="M0.5,126.5 L8.5,126.5" id="Line-Copy-6" stroke="#000000" stroke-linecap="square"></path>
                    <path d="M0.5,129.5 L8.5,129.5" id="Line-Copy-7" stroke="#000000" stroke-linecap="square"></path>
                    <path d="M0.5,132.5 L8.5,132.5" id="Line-Copy-3" stroke="#000000" stroke-linecap="square"></path>
                    <path d="M0.5,147.5 L14.5,147.5" id="Line-Copy-8" stroke="#000000" stroke-linecap="square"></path>
                    <path d="M0.5,138.5 L8.5,138.5" id="Line-Copy-6" stroke="#000000" stroke-linecap="square"></path>
                    <path d="M0.5,141.5 L8.5,141.5" id="Line-Copy-7" stroke="#000000" stroke-linecap="square"></path>
                    <path d="M0.5,144.5 L8.5,144.5" id="Line-Copy-3" stroke="#000000" stroke-linecap="square"></path>
                    <path d="M0.5,159.5 L14.5,159.5" id="Line-Copy-8" stroke="#000000" stroke-linecap="square"></path>
                    <path d="M0.5,150.5 L8.5,150.5" id="Line-Copy-6" stroke="#000000" stroke-linecap="square"></path>
                    <path d="M0.5,153.5 L8.5,153.5" id="Line-Copy-7" stroke="#000000" stroke-linecap="square"></path>
                    <path d="M0.5,156.5 L8.5,156.5" id="Line-Copy-3" stroke="#000000" stroke-linecap="square"></path>
                    <path d="M0.5,171.5 L14.5,171.5" id="Line-Copy-8" stroke="#000000" stroke-linecap="square"></path>
                    <path d="M0.5,162.5 L8.5,162.5" id="Line-Copy-6" stroke="#000000" stroke-linecap="square"></path>
                    <path d="M0.5,165.5 L8.5,165.5" id="Line-Copy-7" stroke="#000000" stroke-linecap="square"></path>
                    <path d="M0.5,168.5 L8.5,168.5" id="Line-Copy-3" stroke="#000000" stroke-linecap="square"></path>
                    <path d="M0.5,183.5 L14.5,183.5" id="Line-Copy-8" stroke="#000000" stroke-linecap="square"></path>
                    <path d="M0.5,174.5 L8.5,174.5" id="Line-Copy-6" stroke="#000000" stroke-linecap="square"></path>
                    <path d="M0.5,177.5 L8.5,177.5" id="Line-Copy-7" stroke="#000000" stroke-linecap="square"></path>
                    <path d="M0.5,180.5 L8.5,180.5" id="Line-Copy-3" stroke="#000000" stroke-linecap="square"></path>
                </g>
                <g id="pen" transform="translate(56.000000, 28.000000)">
                    <path d="M0,116.31198 L3.19248529e-17,9.00047823 C1.42932435e-17,4.02965136 4.02834436,0 9,0 L9,0 C13.9705627,0 18,4.0269985 18,9.00667097 L18,116.934586 L18,116.934586 C18,121.240528 16.9538003,128.615232 15.50251,133.371076 C15.50251,133.371076 13,145 9,145 C5,145 2.49749004,133.371076 2.49749004,133.371076 C1.11816438,128.599395 0,120.696827 0,116.31198 C0,116.31198 0,116.519516 0,116.31198 Z" id="Rectangle-2" stroke="#979797" stroke-width="2" fill="#FFFFFF"></path>
                    <path d="M0.5,114.652778 C0.5,114.652778 7.9375,102.965278 17.5,114.652778" id="Path-62-Copy" stroke="#000000"></path>
                    <path d="M0.5,121.652778 C0.5,121.652778 7.9375,109.965278 17.5,121.652778" id="Path-62-Copy-2" stroke="#000000"></path>
                </g>
                <g id="pen-small" transform="translate(83.000000, 34.000000)">
                    <path d="M0,80.7151588 L2.06226373e-17,6.49965392 C9.23306922e-18,3.18613656 2.69303423,0.5 6,0.5 L6,0.5 C9.3137085,0.5 12,3.18042921 12,6.50325255 L12,81.1445423 L12,81.1445423 C12,84.114157 11.3251425,89.1179932 10.3892763,92.3079978 C10.3892763,92.3079978 8.66666667,100.5 6,100.5 C3.33333333,100.5 1.60755141,92.2978968 1.60755141,92.2978968 C0.719725284,89.1076839 0,83.839851 0,80.7151588 C0,80.7151588 0,80.8582866 0,80.7151588 Z" id="Rectangle-2-Copy" stroke="#979797" stroke-width="2" fill="#FFFFFF"></path>
                    <path d="M0.744384766,79.6751934 C0.744384766,79.6751934 5.3430481,72.4487225 11.2556152,79.6751934" id="Path-62-Copy-3" stroke="#000000"></path>
                    <path d="M0.744384766,87.1893492 C0.744384766,87.1893492 5.3430481,79.9628783 11.2556152,87.1893492" id="Path-62-Copy-4" stroke="#000000"></path>
                </g>
                <g id="triangle" transform="translate(80.000000, 108.000000)">
                    <g id="Group" transform="translate(9.000000, 24.000000)" stroke="#000000" stroke-linecap="square">
                        <path d="M20.8333333,8.59807621 L30.1666667,8.59807621" id="Line-Copy-8" transform="translate(25.500000, 8.598076) rotate(-330.000000) translate(-25.500000, -8.598076) "></path>
                        <path d="M24.1012825,2.40192379 L29.4346159,2.40192379" id="Line-Copy-6" transform="translate(26.767949, 2.401924) rotate(-330.000000) translate(-26.767949, -2.401924) "></path>
                        <path d="M23.1012825,4.1339746 L28.4346159,4.1339746" id="Line-Copy-7" transform="translate(25.767949, 4.133975) rotate(-330.000000) translate(-25.767949, -4.133975) "></path>
                        <path d="M22.1012825,5.8660254 L27.4346159,5.8660254" id="Line-Copy-3" transform="translate(24.767949, 5.866025) rotate(-330.000000) translate(-24.767949, -5.866025) "></path>
                        <path d="M16.8333333,15.5980762 L26.1666667,15.5980762" id="Line-Copy-8" transform="translate(21.500000, 15.598076) rotate(-330.000000) translate(-21.500000, -15.598076) "></path>
                        <path d="M20.1012825,9.40192379 L25.4346159,9.40192379" id="Line-Copy-6" transform="translate(22.767949, 9.401924) rotate(-330.000000) translate(-22.767949, -9.401924) "></path>
                        <path d="M19.1012825,11.1339746 L24.4346159,11.1339746" id="Line-Copy-7" transform="translate(21.767949, 11.133975) rotate(-330.000000) translate(-21.767949, -11.133975) "></path>
                        <path d="M18.1012825,12.8660254 L23.4346159,12.8660254" id="Line-Copy-3" transform="translate(20.767949, 12.866025) rotate(-330.000000) translate(-20.767949, -12.866025) "></path>
                        <path d="M12.8333333,22.5980762 L22.1666667,22.5980762" id="Line-Copy-8" transform="translate(17.500000, 22.598076) rotate(-330.000000) translate(-17.500000, -22.598076) "></path>
                        <path d="M16.1012825,16.4019238 L21.4346159,16.4019238" id="Line-Copy-6" transform="translate(18.767949, 16.401924) rotate(-330.000000) translate(-18.767949, -16.401924) "></path>
                        <path d="M15.1012825,18.1339746 L20.4346159,18.1339746" id="Line-Copy-7" transform="translate(17.767949, 18.133975) rotate(-330.000000) translate(-17.767949, -18.133975) "></path>
                        <path d="M14.1012825,19.8660254 L19.4346159,19.8660254" id="Line-Copy-3" transform="translate(16.767949, 19.866025) rotate(-330.000000) translate(-16.767949, -19.866025) "></path>
                        <path d="M8.83333333,29.5980762 L18.1666667,29.5980762" id="Line-Copy-8" transform="translate(13.500000, 29.598076) rotate(-330.000000) translate(-13.500000, -29.598076) "></path>
                        <path d="M12.1012825,23.4019238 L17.4346159,23.4019238" id="Line-Copy-6" transform="translate(14.767949, 23.401924) rotate(-330.000000) translate(-14.767949, -23.401924) "></path>
                        <path d="M11.1012825,25.1339746 L16.4346159,25.1339746" id="Line-Copy-7" transform="translate(13.767949, 25.133975) rotate(-330.000000) translate(-13.767949, -25.133975) "></path>
                        <path d="M10.1012825,26.8660254 L15.4346159,26.8660254" id="Line-Copy-3" transform="translate(12.767949, 26.866025) rotate(-330.000000) translate(-12.767949, -26.866025) "></path>
                        <path d="M4.83333333,36.5980762 L14.1666667,36.5980762" id="Line-Copy-8" transform="translate(9.500000, 36.598076) rotate(-330.000000) translate(-9.500000, -36.598076) "></path>
                        <path d="M8.10128253,30.4019238 L13.4346159,30.4019238" id="Line-Copy-6" transform="translate(10.767949, 30.401924) rotate(-330.000000) translate(-10.767949, -30.401924) "></path>
                        <path d="M7.10128253,32.1339746 L12.4346159,32.1339746" id="Line-Copy-7" transform="translate(9.767949, 32.133975) rotate(-330.000000) translate(-9.767949, -32.133975) "></path>
                        <path d="M6.10128253,33.8660254 L11.4346159,33.8660254" id="Line-Copy-3" transform="translate(8.767949, 33.866025) rotate(-330.000000) translate(-8.767949, -33.866025) "></path>
                        <path d="M0.833333333,43.5980762 L10.1666667,43.5980762" id="Line-Copy-8" transform="translate(5.500000, 43.598076) rotate(-330.000000) translate(-5.500000, -43.598076) "></path>
                        <path d="M4.10128253,37.4019238 L9.43461586,37.4019238" id="Line-Copy-6" transform="translate(6.767949, 37.401924) rotate(-330.000000) translate(-6.767949, -37.401924) "></path>
                        <path d="M3.10128253,39.1339746 L8.43461586,39.1339746" id="Line-Copy-7" transform="translate(5.767949, 39.133975) rotate(-330.000000) translate(-5.767949, -39.133975) "></path>
                        <path d="M2.10128253,40.8660254 L7.43461586,40.8660254" id="Line-Copy-3" transform="translate(4.767949, 40.866025) rotate(-330.000000) translate(-4.767949, -40.866025) "></path>
                    </g>
                    <path d="M47.5,0 L142,82 L0,83 L47.5,0 Z M52.1021127,20 L110,70.3855422 L23,71 L52.1021127,20 Z" id="Triangle-1" stroke="#979797" stroke-width="2"></path>
                </g>
                <g id="circle" transform="translate(93.000000, 1.000000)">
                    <path d="M89.3412928,61.7071068 C87.7324835,77.8743328 74.090683,90.5 57.5,90.5 C40.909317,90.5 27.2675165,77.8743328 25.6587072,61.7071068 L89.3412928,61.7071068 Z M88.8642043,52.1213203 C85.9075182,37.5043613 72.9888622,26.5 57.5,26.5 C42.0111378,26.5 29.0924818,37.5043613 26.1357957,52.1213203 L88.8642043,52.1213203 Z M58,99 C80.6436747,99 99,80.6436747 99,58 C99,35.3563253 80.6436747,17 58,17 C35.3563253,17 17,35.3563253 17,58 C17,80.6436747 35.3563253,99 58,99 Z" id="Oval-1" stroke="#979797" stroke-width="2" transform="translate(58.000000, 58.000000) rotate(-45.000000) translate(-58.000000, -58.000000) "></path>
                    <path d="M44.4108855,64.7439723 L50.3130243,64.7439723" id="Line-Copy-8" stroke="#000000" stroke-linecap="square" transform="translate(47.361955, 64.743972) rotate(-316.000000) translate(-47.361955, -64.743972) "></path>
                    <path d="M47.8767763,60.7729611 L51.3263685,60.7729611" id="Line-Copy-7" stroke="#000000" stroke-linecap="square" transform="translate(49.601572, 60.772961) rotate(-316.000000) translate(-49.601572, -60.772961) "></path>
                    <path d="M49.5524836,59.0377154 L53.0020758,59.0377154" id="Line-Copy-9" stroke="#000000" stroke-linecap="square" transform="translate(51.277280, 59.037715) rotate(-316.000000) translate(-51.277280, -59.037715) "></path>
                    <path d="M46.1478276,62.4567922 L49.5974198,62.4567922" id="Line-Copy-3" stroke="#000000" stroke-linecap="square" transform="translate(47.872624, 62.456792) rotate(-316.000000) translate(-47.872624, -62.456792) "></path>
                    <path d="M51.5094679,57.8315025 L57.4116066,57.8315025" id="Line-Copy-8" stroke="#000000" stroke-linecap="square" transform="translate(54.460537, 57.831502) rotate(-318.000000) translate(-54.460537, -57.831502) "></path>
                    <path d="M54.835408,53.7847488 L58.2850002,53.7847488" id="Line-Copy-7" stroke="#000000" stroke-linecap="square" transform="translate(56.560204, 53.784749) rotate(-318.000000) translate(-56.560204, -53.784749) "></path>
                    <path d="M56.4495353,51.9920788 L59.8991275,51.9920788" id="Line-Copy-9" stroke="#000000" stroke-linecap="square" transform="translate(58.174331, 51.992079) rotate(-318.000000) translate(-58.174331, -51.992079) "></path>
                    <path d="M53.1662774,55.5278936 L56.6158696,55.5278936" id="Line-Copy-3" stroke="#000000" stroke-linecap="square" transform="translate(54.891073, 55.527894) rotate(-318.000000) translate(-54.891073, -55.527894) "></path>
                </g>
            </g>
        </g>
    </g>
</svg>
