<svg width="276" height="160" viewBox="0 0 276 160" xmlns="http://www.w3.org/2000/svg" xmlns:xlink="http://www.w3.org/1999/xlink"><title>designs</title><defs><path id="a" d="M0 0h206.316v127.365H0z"/><mask id="f" x="0" y="0" width="206.316" height="127.365" fill="#fff"><use xlink:href="#a"/></mask><path id="b" d="M0 0h41v127H0z"/><mask id="g" x="0" y="0" width="41" height="127" fill="#fff"><use xlink:href="#b"/></mask><path id="c" d="M7 33h27v33H7z"/><mask id="h" x="0" y="0" width="27" height="33" fill="#fff"><use xlink:href="#c"/></mask><path id="d" d="M0 0h89v127H0z"/><mask id="i" x="0" y="0" width="89" height="127" fill="#fff"><use xlink:href="#d"/></mask><path id="e" d="M15 33h58v33H15z"/><mask id="j" x="0" y="0" width="58" height="33" fill="#fff"><use xlink:href="#e"/></mask></defs><g fill="none" fill-rule="evenodd"><g transform="translate(47)"><use stroke="#DCDCDC" mask="url(#f)" stroke-width="2" fill="#FFF" xlink:href="#a"/><path fill="#D8D8D8" d="M1.965 1.959h202.386v23.514H1.965z"/><path fill="#FFF" d="M13.754 7.838h182.737v12.736H13.754z"/><path d="M21.417 40.184H54.04" stroke="#12A9A6" stroke-width="2" stroke-linecap="square"/><path d="M21.417 47.592H54.04M21.417 53.5H54.04M21.417 58.592H54.04" stroke="#979797" stroke-linecap="square"/><path d="M66.417 40.184H99.04" stroke="#12A9A6" stroke-width="2" stroke-linecap="square"/><path d="M66.417 47.592H99.04M66.417 53.5H99.04M66.417 58.592H99.04" stroke="#979797" stroke-linecap="square"/><path d="M111.417 40.184h32.624" stroke="#12A9A6" stroke-width="2" stroke-linecap="square"/><path d="M111.417 47.592h32.624M111.417 53.5h32.624M111.417 58.592h32.624" stroke="#979797" stroke-linecap="square"/><path d="M154.417 40.184h32.624" stroke="#12A9A6" stroke-width="2" stroke-linecap="square"/><path d="M154.417 47.592h32.624M154.417 53.5h32.624M154.417 58.592h32.624" stroke="#979797" stroke-linecap="square"/><path d="M23.374 72.53h76.252M23.374 88.53h76.252M23.374 79.53h76.252M23.374 95.53h76.252M110.374 72.53h76.252M110.374 88.53h76.252M110.374 79.53h76.252M110.374 95.53h76.252" stroke="#DCDCDC" stroke-linecap="square"/></g><g transform="translate(234 33)"><use stroke="#DCDCDC" mask="url(#g)" stroke-width="2" fill="#FFF" xlink:href="#b"/><path fill="#D8D8D8" d="M1 2h40v24H1z"/><path fill="#FFF" d="M2 8h36v13H2z"/><path d="M1.194 72.184h39.612M1.194 87.184h39.612M1.194 102.184h39.612" stroke="#DCDCDC" stroke-linecap="square"/><use stroke="#12A9A6" mask="url(#h)" stroke-width="2" xlink:href="#c"/></g><g transform="translate(.754 33)"><use stroke="#DCDCDC" mask="url(#i)" stroke-width="2" fill="#FFF" xlink:href="#d"/><path fill="#D8D8D8" d="M2 2h87v24H2z"/><path fill="#FFF" d="M5 8h79v13H5z"/><path d="M2.422 72.184h86.156M2.422 87.184h86.156M2.422 102.184h86.156" stroke="#DCDCDC" stroke-linecap="square"/><use stroke="#12A9A6" mask="url(#j)" stroke-width="2" xlink:href="#e"/></g></g></svg>