<svg width="278" height="268" viewBox="0 0 278 268" xmlns="http://www.w3.org/2000/svg" xmlns:xlink="http://www.w3.org/1999/xlink"><title>exploration</title><defs><path id="a" d="M0 0h206v127H0z"/><mask id="f" x="0" y="0" width="206" height="127" fill="#fff"><use xlink:href="#a"/></mask><path id="b" d="M0 0h54v127H0z"/><mask id="g" x="0" y="0" width="54" height="127" fill="#fff"><use xlink:href="#b"/></mask><path id="c" d="M0 141h206v127H0z"/><mask id="h" x="0" y="0" width="206" height="127" fill="#fff"><use xlink:href="#c"/></mask><path id="d" d="M0 0h54v127H0z"/><mask id="i" x="0" y="0" width="54" height="127" fill="#fff"><use xlink:href="#d"/></mask><path id="e" d="M232 173h35v33h-35z"/><mask id="j" x="0" y="0" width="35" height="33" fill="#fff"><use xlink:href="#e"/></mask></defs><g fill="none" fill-rule="evenodd"><use stroke="#DCDCDC" mask="url(#f)" stroke-width="2" fill="#FFF" xlink:href="#a"/><path fill="#D8D8D8" d="M1 1h205v25H1z"/><path fill="#FFF" d="M2 8h201v13H2z"/><path d="M43.915 39.549h118.937" stroke="#12A9A6" stroke-width="2" stroke-linecap="square"/><path d="M43.915 46.227h118.937M43.915 52.105h118.937M43.915 57.984h118.937" stroke="#979797" stroke-linecap="square"/><g transform="translate(223)"><use stroke="#DCDCDC" mask="url(#g)" stroke-width="2" fill="#FFF" xlink:href="#b"/><path fill="#D8D8D8" d="M1 1h53v25H1z"/><path fill="#FFF" d="M3 9h48v13H3z"/><path d="M11.178 39.367H42" stroke="#12A9A6" stroke-width="2" stroke-linecap="square"/><path d="M11.178 46.184H42M11 52h31M11.178 58.184H42" stroke="#979797" stroke-linecap="square"/></g><use stroke="#DCDCDC" mask="url(#h)" stroke-width="2" fill="#FFF" xlink:href="#c"/><path fill="#D8D8D8" d="M1 142h205v24H1z"/><path fill="#FFF" d="M3 150h200v13H3z"/><g stroke-linecap="square"><path d="M21.417 181.184H54.04" stroke="#12A9A6" stroke-width="2"/><path d="M21.417 188.592H54.04M21.417 194.5H54.04M21.417 199.592H54.04" stroke="#979797"/></g><g stroke-linecap="square"><path d="M66.417 181.184H99.04" stroke="#12A9A6" stroke-width="2"/><path d="M66.417 188.592H99.04M66.417 194.5H99.04M66.417 199.592H99.04" stroke="#979797"/></g><g stroke-linecap="square"><path d="M111.417 181.184h32.624" stroke="#12A9A6" stroke-width="2"/><path d="M111.417 188.592h32.624M111.417 194.5h32.624M111.417 199.592h32.624" stroke="#979797"/></g><g stroke-linecap="square"><path d="M154.417 181.184h32.624" stroke="#12A9A6" stroke-width="2"/><path d="M154.417 188.592h32.624M154.417 194.5h32.624M154.417 199.592h32.624" stroke="#979797"/></g><path d="M110.374 218.53h76.252M110.374 234.53h76.252M110.374 225.53h76.252M110.374 241.53h76.252M21.374 218.53h76.252M21.374 234.53h76.252M21.374 225.53h76.252M21.374 241.53h76.252" stroke="#DCDCDC" stroke-linecap="square"/><g transform="translate(223 141)"><use stroke="#DCDCDC" mask="url(#i)" stroke-width="2" fill="#FFF" xlink:href="#d"/><path fill="#D8D8D8" d="M1 1h53v24H1z"/><path fill="#FFF" d="M3 9h48v13H3z"/><path d="M1.257 72.184h52.486M1.257 87.184h52.486M1.257 102.184h52.486" stroke="#DCDCDC" stroke-linecap="square"/></g><use stroke="#12A9A6" mask="url(#j)" stroke-width="2" xlink:href="#e"/></g></svg>