<svg width="256" height="127" viewBox="0 0 256 127" xmlns="http://www.w3.org/2000/svg" xmlns:xlink="http://www.w3.org/1999/xlink"><title>Group</title><defs><path id="a" d="M120 77h9v49h-9z"/><mask id="g" x="0" y="0" width="9" height="49" fill="#fff"><use xlink:href="#a"/></mask><path id="b" d="M149 77h9v49h-9z"/><mask id="h" x="0" y="0" width="9" height="49" fill="#fff"><use xlink:href="#b"/></mask><path id="c" d="M105 93h9v32h-9z"/><mask id="i" x="0" y="0" width="9" height="32" fill="#fff"><use xlink:href="#c"/></mask><path id="d" d="M166 90h9v35h-9z"/><mask id="j" x="0" y="0" width="9" height="35" fill="#fff"><use xlink:href="#d"/></mask><path id="e" d="M183 101h9v26h-9z"/><mask id="k" x="0" y="0" width="9" height="26" fill="#fff"><use xlink:href="#e"/></mask><path id="f" d="M134 56h9v69h-9z"/><mask id="l" x="0" y="0" width="9" height="69" fill="#fff"><use xlink:href="#f"/></mask></defs><g transform="translate(1)" fill="none" fill-rule="evenodd"><path fill="#E6E6E6" d="M146 0h49v49h-49z"/><g transform="translate(153 9)" fill="#12A9A6"><ellipse cx="15.981" cy="8.715" rx="8.814" ry="8.715"/><path d="M.306 30.544s-.207-16.86 15.252-16.86c15.46 0 14.996 16.86 14.996 16.86H.306z"/></g><use stroke="#FFF" mask="url(#g)" stroke-width="2" fill="#12A9A6" xlink:href="#a"/><use stroke="#FFF" mask="url(#h)" stroke-width="2" fill="#12A9A6" xlink:href="#b"/><use stroke="#FFF" mask="url(#i)" stroke-width="2" fill="#12A9A6" xlink:href="#c"/><use stroke="#FFF" mask="url(#j)" stroke-width="2" fill="#12A9A6" xlink:href="#d"/><use stroke="#FFF" mask="url(#k)" stroke-width="2" fill="#12A9A6" xlink:href="#e"/><use stroke="#FFF" mask="url(#l)" stroke-width="2" fill="#12A9A6" xlink:href="#f"/><path d="M220.085 46.636A24.942 24.942 0 0 1 229 45c13.807 0 25 11.193 25 25s-11.193 25-25 25-25-11.193-25-25c0-3.19.598-6.242 1.687-9.047.095-.12.165-.212.165-.212l24.074 12.037-10.185-25.926s.151-.09.344-.216z" stroke="#FFF" fill="#12A9A6"/><path stroke="#12A9A6" d="M4 98.03l9.552 9.127L28.358 86.98l11.463 12.49 12.418-20.656L76.119 111 100 62"/><ellipse stroke="#979797" fill="#FFF" cx="4" cy="97" rx="4" ry="4"/><ellipse stroke="#979797" fill="#FFF" cx="77" cy="110" rx="4" ry="4"/><ellipse stroke="#979797" fill="#FFF" cx="101" cy="62" rx="4" ry="4"/><ellipse stroke="#979797" fill="#FFF" cx="52" cy="78" rx="4" ry="4"/><ellipse stroke="#979797" fill="#FFF" cx="29" cy="87" rx="4" ry="4"/></g></svg>