<svg width="413" height="417" viewBox="0 0 413 417" xmlns="http://www.w3.org/2000/svg"><title>leaf line</title><defs><linearGradient x1="81.774%" y1="1.416%" x2="18.506%" y2="100%" id="a"><stop stop-color="#00D4D3" offset="0%"/><stop stop-color="#008E8C" offset="100%"/></linearGradient><linearGradient x1="104.632%" y1="102.264%" x2="-4.673%" y2="-3.084%" id="b"><stop stop-color="#00ACAA" offset="0%"/><stop stop-color="#FFF" offset="58.316%"/><stop stop-color="#00CCCA" offset="100%"/></linearGradient><linearGradient x1="104.632%" y1="102.264%" x2="1.595%" y2="-3.276%" id="c"><stop stop-color="#00ACAA" offset="0%"/><stop stop-color="#FFF" offset="63.026%"/><stop stop-color="#00CCCA" offset="100%"/></linearGradient><linearGradient x1="0%" y1="100%" x2="99.863%" y2="0%" id="d"><stop stop-color="#00ACAA" offset="0%"/><stop stop-color="#FFF" offset="51.501%"/><stop stop-color="#00B8B6" offset="100%"/></linearGradient><linearGradient x1="-3.936%" y1="104.943%" x2="95.278%" y2="2.791%" id="e"><stop stop-color="#00ACA9" offset="0%"/><stop stop-color="#FFF" offset="51.988%"/><stop stop-color="#00CCCA" offset="100%"/></linearGradient><linearGradient x1="100%" y1="-3.275%" x2="0%" y2="100%" id="f"><stop stop-color="#00ACAA" offset="0%"/><stop stop-color="#FFF" offset="49.048%"/><stop stop-color="#009F9C" offset="100%"/></linearGradient><linearGradient x1="104.632%" y1="102.264%" x2="1.595%" y2="-3.276%" id="g"><stop stop-color="#009F9D" offset="0%"/><stop stop-color="#FFF" offset="63.026%"/><stop stop-color="#009F9D" offset="100%"/></linearGradient><linearGradient x1="100%" y1="100%" x2="2.138%" y2="6.989%" id="h"><stop stop-color="#00ACAA" offset="0%"/><stop stop-color="#FFF" offset="48.779%"/><stop stop-color="#00A8A6" offset="100%"/></linearGradient></defs><g fill="none" fill-rule="evenodd"><path d="M287.978 341.532c-.4-2.76-3.123-8.267-4.691-11.227-1.767-3.335.073-7.275-.802-9.953-.876-2.679.533-10.04 1.02-14.006.487-3.965-.303-3.69-.071-5.577.232-1.886 4.29.527 4.29.527s.026-2.359.332-4.848c.305-2.49 2.598-8.42 2.598-8.42s3.323 1.36 3.604-.926c.28-2.286 1.958-6.06 1.958-6.06l4.605-9.803 2.163 2.88s.972-1.687 1.363-4.866c.39-3.18 4.474-7.392 4.474-7.392s2 1.274 2.137.154 4.777-8.974 4.777-8.974l1.49 2.568s1.786-1.093 2.183-4.326c.397-3.234 8.646-5.742 8.646-5.742l1.624 2.9 2.226-3.338 4.96-1.371.99 6.817 3.387-2.45s.268 2.286 1.702 3.61c1.433 1.324-3.106 12.296-3.106 12.296l3.066-2.435-.064 4.094-3.76 8.082 2.86-1.378.24 2.316-3.805 11.214 2.087-.695-.231 1.886s-3.995 10.611-5.554 11.458c-1.56.848-2.668 8.094-2.668 8.094l-3.575 4.294 3.817-.429-2.547 3.824-5.54 7.151s-4.597 4.666-8.766 9.208c-4.168 4.541-8.355 7.791-8.355 7.791l-15.781 7.911-.424.09.398.69s3.79 7.806 8.253 11.917 64.64 32.385 75.776 38.201c11.134 5.816 36.812 11.469 36.812 11.469l-3.635 7.482s-11.244-6.299-13.615-6.299c-2.37 0-25.697-13.968-28.79-13.968-3.095 0-36.85-19.528-39.462-19.528-2.611 0-42.52-23.25-42.52-23.25l-7.798 1.483-.84-1.312-4.21 2.524-11.808 4.313-22.653 12.246-6.777 6.17-3.838-.237-5.964 1.993-.878-2.526-9.438 2.139.11-2.627-5.134 1.974-5.056-1.146-8.01-1.666-8.81.872-3.052-1.508 1.046-1.931-9.569-1.688s9.684-4.334 3.064-2.613c-6.62 1.721-9.482-4.56-9.482-4.56l2.712-2.059-2.752-3.274 6.158-4.04-3.054-2.997 8.727-4.106-.046-2.62 8.858-3.588 4.482.525-1.261-1.788 10.416-1.24 12.036-2.98 2.57-1.82 2.422-.355L217.54 333l2.56-.078 41.773 11.102 11.699 4.807 1.46.613 1.698.3 1.992-1.495-48.801-54.6-6.799 1.483-.01-.013c-.675.22-1.446.396-2.195.396-2.041 0-12.004 11.102-12.78 11.102-.777 0-4.3 3.034-5.906 3.034-1.606 0-19.954 9.9-19.954 9.9l-1.64-.868s-1.861 1.45-2.893 1.45c-1.032 0-2.676 2.313-4.055 2.313-1.379 0-8.712 1-8.712 1s-2.297 1.682-3.507.9c-1.21-.78-4.636.782-5.461.782-.825 0-1.558-.342-3.203-.342-1.645 0-7.208 1.216-7.208 1.216s-4.593.39-5.58.39c-.988 0-7.752.213-8.789.213s1.64-2.22 1.037-2.22-6.427 1.042-7.507 1.042-2.36-3.017-2.36-3.017v-1.732l-2.41.95s-3.729.646-4.64.646c-.913 0-7.546-1.47-7.546-1.47l-.868-1.086 1.292-1.471-1.95-.217-3.25-1.119-2.948-2.86-3.935-.049s-2.259.13-3.361-.37c-1.103-.5-5.005-.971-5.005-.971l.748-1.096 1.423-2.048s-3.235-.27-3.85-.27c-.614 0-4.857-1.863-5.764-2.666-.907-.804-.055-1.541-.055-1.541l2.188-2.276s-.36-.051-4.268-1.788c-3.908-1.738-7.448-7.545-7.448-7.545l3.995-1.64-6.492-4.658 9.24-4.821-1.553-1.803 1.27-2.042s5.788-1.987 9.502-3.29c3.714-1.303-.705 1.803-.705-3.387 0-5.19 12.852-4.506 12.852-4.506l.359-2.758v-1.552l7.61-1.813 1.716-1.532 2.313-1.466 9.598.522 2.237-.25 8.295-1.803v-2.172l12.888 1.813 1.64-.433 5.47-.685 1.9.163 5.093.75 1.706-2.997 16.577 4.255.607-3.53 6.298 4.344v-3.117l7.035 4.777-.51-2.932 2.931 2.487 9.076 7.556 10.822 8.303s3.282 7.588 8.14 14.895c.274.412.521.783.745 1.116 2.637.05 7.903-.402 3.938-5.28-5.153-6.34-47.688-78.815-47.688-78.815l-.172-.035-4.035.211s-3.145 1.594-4.754 1.678c-1.61.084-22.59 10.737-22.59 10.737l-6.284 1.693-3.972 1.016s-3.46 3.891-3.395 5.14c.065 1.248-3.4 1.476-3.4 1.476l-2.23.117s-1.986 2.265-5.059-.606c-3.072-2.872-7.815 3.442-7.905 1.713-.09-1.73-3.563 1.92-3.563 1.92l-3.443-.746-3.727.937-5.662-1.502-3.709.194s-6.445 2.007-8.36 2.107c-1.913.1-5.338-.276-5.338-.276l1.295-2.545-3.09.162-5.077.266c-1.169.061-4.522-1.126-4.522-1.126l.154-2.93s-1.512.7-3.002.779l-5.19.272s-3.655-.18-2.052-1.636c1.603-1.457 1.289-2.674-.441-2.583-1.73.09-3.684-.55-5.053-.478l-4.57.24 1.62-2.19-.34-1.726s-2.574.07-4.85.19l-5.615.294-.823-3.853 2.165-2.405-3.293-.013s-4.115-1.705-6.03-1.605c-1.916.1-4.6-2.791-4.6-2.791s4.308-2.953 2.504-2.859c-1.804.095-8.47-4.62-8.47-4.62s-4.255-2.068-2.727-3.707a29.026 29.026 0 0 1 3.07-2.832s-3.099-.023-4.887-1.042c-1.788-1.02-7.846-6.704-7.846-6.704s5.242-2.13 3.169-2.022c-2.073.11-2.628-3.952-2.628-3.952l-.49-2.266s-1.648-1.898-3.008-1.827c-1.36.072-4.502-5.71-4.502-5.71l8.043-2.462s-2.741-.283-4.821-2.095c-2.08-1.811-.377-2.41-.474-4.268-.098-1.859 8.677-1.883 8.52-4.862-.155-2.978.403-2.942.403-2.942s4.482-.857 5.85-.928c1.368-.072 2.824-1.512 2.824-1.512l.27-1.943 4.459-.048s4.825-1.375 8.778-.46c3.952.914 2.02.516 2.02.516l1.945-1.846s.659-1.592 4.674-1.802c4.015-.21 1.763-.694.486-2.576-1.277-1.882 8.612 1.497 10.036.336 1.423-1.16.583-3.194 2.813-3.31 2.23-.117 11.813 3.63 11.813 3.63l1.195-1.983s4.351-1.035 5.59-1.1c1.24-.065 1.263-1.92 1.263-1.92s4.748 2.978 7.237 4.276c2.49 1.297 1.677-1.257 1.593-2.867-.085-1.61 1.414-2.745 1.414-2.745s8.042 4.588 9.827 5.551c1.785.964 1.641-4.24 1.7-3.13.058 1.11 7.142 6.37 7.041 4.454-.1-1.916 2.609-.137 2.609-.137s8.29 7.051 9.9 6.967c1.61-.084 10.887 1.164 10.887 1.164l5.383 6.971s6.87 4.715 8.046 4.653c1.175-.062 12.444 9.496 12.529 11.106.084 1.61 16.54 27.647 16.54 27.647l.905-.086v-1.269l2.964-1.5s-15.84-39.184-18.433-42.035c-.3-.33-.497-.775-.608-1.287l-1.936-.722-15.361-4.603-5.45-1.563-10.304-3.582-3.617-2.508-1.388-1.119-8.175-4.418-1.455-2.998-8.935-7.242-.26-3.224s-4.256-4.69-4.256-6.406c0-1.716-7.024-7.534-7.024-7.534l3.202-2.574-5.873-5.93-.444-5.231 2.297-1.62s-8.088-6.282-8.088-8.773c0-2.491 4.447-2.741 4.447-2.741s-3.761-4.872-3.761-5.993c0-1.122-.806-4.094-.806-4.094l-2.038-6.494 4.28-1.742-4.457-10.078 4.392-1.982-4.835-9.764 7.79-1.24-2.668-5.487-.37-6.809 3.335-2.278-.306-5.818 1.556-5.567 1.49-1.056.62-6.178 3.845-.436.218-9.205s5.124 7.43 6.688 5.104c1.563-2.327 1.531-4.517 1.531-4.517s6.48 2.822 7.49 4.353c1.011 1.532 7.514-.987 7.514-.987l2.921 4.724 6.32 2.594 2.67 4.725 3.8 1.9 4.843 4.842 5.332-2.681.433 4.44 1.14 4.157 3.203-.521 2.334 2.596.26 3.365 4.398 1.216 2.954 8.948-.25 3.897 2.92 3.269 4.082 7.937s3.432-.237 3.432 6.808 1.227 6.014 1.227 6.014l2.888-1.705.446 16.035 2.65-.317s-1.216 18.335-1.216 21.365c0 3.029-2.66 18.63-2.66 18.63l-3.041 9.77-4.081 11.541-2.735 5.578c.028.448.044.956.044 1.528 0 10.007 19.034 40.186 20.963 43.219l1.968-4.66-4.646-23.99 1.04-9.512 1.196-5.994 1.91-7.447 1-13.639 1.196-3.473.521-10.554 6.21-14.569 5.427-1.127 1.91-12.53 4.061.24 1.987-6.56 1.358.925s3.887-8.11 5.44-8.11c1.552 0 6.221-10.544 6.221-10.544s1.858-2.258 3.671 1.564c1.814 3.821 6.1-14.236 8.75-11.043 2.65 3.192 11.4-8.567 11.4-8.567l1.966 2.15 8.449-6.84 2.4 2.878s7.457-7.133 10.042-7.133 1.37 4.93 1.37 4.93l9.825-6.222s-1.802 5.874-1.802 8.056c0 2.181 5.408-.445 5.408-.445s.955 3.626.955 5.016c0 1.39.434 5.927.434 5.927s-1.737 4.757-3.366 6.395c-1.629 1.639 3.572 2.14 4.593-.087 1.02-2.226-.716 7.108-.716 8.118 0 1.011-.956 3.162-.956 3.162l4.67-1.216-3.704 7.818h4.603s-4.29 4.887-4.29 6.711c0 1.824 3.106.716 3.106.716l-6.33 10.043-1.563 2.778 3.095-.652-2.14 6.427-5.015 6.992-2.227 2.14-.694 5.992-2.519 5.277-4.484 3.55 1.716.51-2.758 4.659-9.066 6.426-1.977 2.498-2.008 4.484s-6.318 3.126-7.34 4.852c-1.021 1.727 2.095 1.727 2.095 1.727l-2.478 2.77s-4.93 4.169-6.232 5.993c-1.303 1.824-4.462-.163-8.837 5.471-4.375 5.635-4.897 8.817-6.472 8.817-1.574 0-.78 3.484-5.537 6.34-4.755 2.855-16.22 8.576-18.435 10.313-2.216 1.737-9.479 3.085-9.479 4.245 0 .767-1.686 1.117-2.832 2.14.021.789.032 1.68.032 2.686 0 13.264 48.06 81.225 48.06 81.225l2.683-4.633-1.13-1.404.6-27.905-.388-17.75 1.274-17.911 2.64-4.405.905 1.626 1.656-8.89 3.24.57 1.835-10.413 2.542 2.092 2.742-9.549 2.009.608 11.038-20.573 2.077-2.776 3.64 3.364 7.483-12.437 7.654-6.4.904 4.879s12.815-12.721 14.002-12.512c1.187.21 1.407 3.402 1.407 3.402l5.397-5.102 1.412 3.677 7.875-4.332.43 5.06 3.557-.41.656 5.286 3.05 3.593-1.417 9.969-1.025 4.373 4.15-2.09-3.005 11.54 4.726-.92-5.01 13.713-3.69 3.352 2.536 2.257-4.425 3.774s-3.165 3.872-1.626 7.716c1.54 3.845-.764 3.956-.764 3.956l-1.429 1.723 4.161-.215-2.506 3.77-.44 3.495-5.45 8.09-3.663 3.39 4.01.707-3.756 4.917-6.352 6.256-5.6 7.05-5.135 6.118-3.57 2.922-1.225 1.516-4.682 3.287-5.672 4.721-11.256 6.382-10.514 4.915-7.93 2.704-4.028 2.343c-.985 1.367-2.157 3.705-2.157 7.09 0 5.836 45.705 49.188 48.077 52.781 2.37 3.594 4.335-4.609 4.335-4.609l.623 1.077z" fill="url(#a)"/><path d="M141 144S81.191 4.193 81.191.889" stroke="url(#b)" stroke-width=".5" transform="translate(15 10)"/><path d="M249.628 180.135s-73-132.335-73-135.337" fill="url(#c)" transform="rotate(57 211.419 131.28)"/><path d="M276 332l44-95" stroke="url(#d)" stroke-width=".5" transform="translate(15 10)"/><path d="M223 268l73-130" stroke="url(#e)" stroke-width=".5" transform="translate(15 10)"/><path d="M259.5 342s-101.89 7.172-108.5 12" stroke="url(#f)" stroke-width=".5" transform="translate(15 10)"/><path d="M204.904 284.5s-43.578-4.264-50.276-4.264C147.929 280.236 62 280 62 280" stroke="url(#g)" stroke-width=".5" transform="translate(15 10)"/><path d="M153 195L1 161" stroke="url(#h)" stroke-width=".5" transform="translate(15 10)"/></g></svg>