<?xml version="1.0" encoding="UTF-8" standalone="no"?>
<svg width="413px" height="417px" viewBox="0 0 413 417" version="1.1" xmlns="http://www.w3.org/2000/svg" xmlns:xlink="http://www.w3.org/1999/xlink">
    <!-- Generator: Sketch 3.7.2 (28276) - http://www.bohemiancoding.com/sketch -->
    <title>leaf line</title>
    <desc>Created with Sketch.</desc>
    <defs>
        <linearGradient x1="81.7738964%" y1="1.41586413%" x2="18.5059874%" y2="100%" id="linearGradient-1">
            <stop stop-color="#00D4D3" offset="0%"></stop>
            <stop stop-color="#008E8C" offset="100%"></stop>
        </linearGradient>
        <linearGradient x1="104.632071%" y1="102.26386%" x2="-4.67311084%" y2="-3.08435577%" id="linearGradient-2">
            <stop stop-color="#00ACAA" offset="0%"></stop>
            <stop stop-color="#FFFFFF" offset="58.3159069%"></stop>
            <stop stop-color="#00CCCA" offset="100%"></stop>
        </linearGradient>
        <linearGradient x1="104.632071%" y1="102.26386%" x2="1.59525538%" y2="-3.27555928%" id="linearGradient-3">
            <stop stop-color="#00ACAA" offset="0%"></stop>
            <stop stop-color="#FFFFFF" offset="63.026148%"></stop>
            <stop stop-color="#00CCCA" offset="100%"></stop>
        </linearGradient>
        <linearGradient x1="0%" y1="100%" x2="99.8632848%" y2="0%" id="linearGradient-4">
            <stop stop-color="#00ACAA" offset="0%"></stop>
            <stop stop-color="#FFFFFF" offset="51.5008224%"></stop>
            <stop stop-color="#00B8B6" offset="100%"></stop>
        </linearGradient>
        <linearGradient x1="-3.93568065%" y1="104.942909%" x2="95.2777183%" y2="2.79146635%" id="linearGradient-5">
            <stop stop-color="#00ACA9" offset="0%"></stop>
            <stop stop-color="#FFFFFF" offset="51.9884016%"></stop>
            <stop stop-color="#00CCCA" offset="100%"></stop>
        </linearGradient>
        <linearGradient x1="100%" y1="-3.2750085%" x2="0%" y2="100%" id="linearGradient-6">
            <stop stop-color="#00ACAA" offset="0%"></stop>
            <stop stop-color="#FFFFFF" offset="49.048232%"></stop>
            <stop stop-color="#009F9C" offset="100%"></stop>
        </linearGradient>
        <linearGradient x1="104.632071%" y1="102.26386%" x2="1.59525538%" y2="-3.27555928%" id="linearGradient-7">
            <stop stop-color="#009F9D" offset="0%"></stop>
            <stop stop-color="#FFFFFF" offset="63.026148%"></stop>
            <stop stop-color="#009F9D" offset="100%"></stop>
        </linearGradient>
        <linearGradient x1="100%" y1="100%" x2="2.13758681%" y2="6.98902027%" id="linearGradient-8">
            <stop stop-color="#00ACAA" offset="0%"></stop>
            <stop stop-color="#FFFFFF" offset="48.7785046%"></stop>
            <stop stop-color="#00A8A6" offset="100%"></stop>
        </linearGradient>
    </defs>
    <g id="Page-1" stroke="none" stroke-width="1" fill="none" fill-rule="evenodd">
        <g id="leaf-line">
            <path d="M287.977722,341.532142 C287.577181,338.771994 284.854947,333.2648 283.286611,330.304667 C281.519709,326.969752 283.360252,323.029925 282.48483,320.351516 C281.609408,317.673106 283.018052,310.311388 283.504935,306.34605 C283.991817,302.380712 283.20242,302.655699 283.43402,300.769473 C283.665619,298.883248 287.723099,301.296106 287.723099,301.296106 C287.723099,301.296106 287.75005,298.93708 288.055676,296.44796 C288.361301,293.958841 290.65391,288.028016 290.65391,288.028016 C290.65391,288.028016 293.976872,289.387453 294.257505,287.101883 C294.538138,284.816312 296.215641,281.042423 296.215641,281.042423 L300.820732,271.238574 L302.983941,274.118395 C302.983941,274.118395 303.956433,272.432353 304.346795,269.253103 C304.737158,266.073854 308.821002,261.861439 308.821002,261.861439 C308.821002,261.861439 310.820333,263.135098 310.957912,262.014607 C311.095491,260.894115 315.734635,253.040594 315.734635,253.040594 L317.224663,255.609495 C317.224663,255.609495 319.010853,254.516294 319.407881,251.282765 C319.804908,248.049235 328.053942,245.540724 328.053942,245.540724 L329.6783,248.44195 L331.904493,245.103409 L336.864477,243.731835 L337.854552,250.548815 L341.24091,248.098517 C341.24091,248.098517 341.50923,250.384586 342.942519,251.708778 C344.375809,253.032971 339.836859,264.004955 339.836859,264.004955 L342.903473,261.570496 L342.838639,265.664399 L339.078655,273.745903 L341.938751,272.368373 L342.179881,274.683571 L338.373678,285.898029 L340.461255,285.202924 L340.229656,287.089149 C340.229656,287.089149 336.234873,297.699954 334.675625,298.547496 C333.116377,299.395039 332.008242,306.641152 332.008242,306.641152 L328.432949,310.934702 L332.249967,310.50606 L329.70251,314.329571 L324.162702,321.481183 C324.162702,321.481183 319.565659,326.14713 315.397139,330.688591 C311.228618,335.230053 307.041533,338.480331 307.041533,338.480331 L291.26056,346.391473 L290.837253,346.481802 L291.235359,347.170897 C291.235359,347.170897 295.025391,354.976562 299.488281,359.087891 C303.951172,363.199219 364.128906,391.472656 375.263672,397.289062 C386.398438,403.105469 412.076172,408.757812 412.076172,408.757812 L408.441406,416.240234 C408.441406,416.240234 397.197273,409.941404 394.826172,409.941406 C392.455071,409.941408 369.128914,395.972654 366.035156,395.972656 C362.941399,395.972658 329.185554,376.445311 326.574219,376.445312 C323.962883,376.445314 284.054688,353.195312 284.054688,353.195312 L276.255859,354.677734 L275.415448,353.366196 L271.205651,355.890046 L259.398409,360.203117 L236.745228,372.448634 L229.968346,378.618504 L226.129818,378.381951 L220.165842,380.374638 L219.28836,377.848933 L209.849773,379.987547 L209.959833,377.361291 L204.826256,379.334798 L199.769633,378.189322 L191.760511,376.523241 L182.950813,377.395374 L179.897763,375.887228 L180.944392,373.955643 L171.375215,372.268339 C171.375215,372.268339 181.059184,367.933898 174.439006,369.655193 C167.818827,371.376488 164.957,365.094648 164.957,365.094648 L167.669111,363.036283 L164.916658,359.761503 L171.075009,355.721664 L168.020676,352.724858 L176.748009,348.619378 L176.702444,345.998405 L185.559622,342.410643 L190.042305,342.936296 L188.780924,341.148101 L199.19735,339.908769 L211.232927,336.927059 L213.803588,335.108517 L216.225332,334.753142 L217.539226,332.998587 L220.099324,332.921464 L261.871692,344.02252 L273.571022,348.830253 L275.030803,349.442654 L276.728947,349.742083 L278.720703,348.248047 L229.919922,293.648437 L223.121094,295.130859 L223.110879,295.117559 C222.435713,295.338852 221.665238,295.513672 220.916016,295.513672 C218.875,295.513672 208.912109,306.615723 208.135742,306.615723 C207.359375,306.615723 203.836426,309.650391 202.22998,309.650391 C200.623535,309.650391 182.276367,319.550781 182.276367,319.550781 L180.636719,318.682129 C180.636719,318.682129 178.774902,320.132324 177.743164,320.132324 C176.711426,320.132324 175.066895,322.445312 173.687988,322.445312 C172.309082,322.445312 164.975586,323.444336 164.975586,323.444336 C164.975586,323.444336 162.679199,325.126953 161.46875,324.345703 C160.258301,323.564453 156.833008,325.126953 156.007812,325.126953 C155.182617,325.126953 154.450195,324.785156 152.805176,324.785156 C151.160156,324.785156 145.597168,326.000977 145.597168,326.000977 C145.597168,326.000977 141.004395,326.391602 140.016602,326.391602 C139.028809,326.391602 132.264648,326.603516 131.228027,326.603516 C130.191406,326.603516 132.867188,324.383789 132.264648,324.383789 C131.662109,324.383789 125.837891,325.425781 124.757812,325.425781 C123.677734,325.425781 122.398926,322.40918 122.398926,322.40918 L122.398926,320.677246 L119.988281,321.627441 C119.988281,321.627441 116.259277,322.273438 115.347168,322.273438 C114.435059,322.273438 107.802246,320.802246 107.802246,320.802246 L106.933594,319.716797 L108.226074,318.245605 L106.276855,318.028809 L103.025391,316.910156 L100.078125,314.049316 L96.1425781,314.000977 C96.1425781,314.000977 93.8842773,314.130859 92.7817383,313.630859 C91.6791992,313.130859 87.7773438,312.659668 87.7773438,312.659668 L88.5253906,311.563965 L89.9477539,309.516113 C89.9477539,309.516113 86.7128906,309.245117 86.0986328,309.245117 C85.484375,309.245117 81.2407227,307.383301 80.3339844,306.57959 C79.4272461,305.775879 80.2788086,305.038574 80.2788086,305.038574 L82.4672852,302.763184 C82.4672852,302.763184 82.1074219,302.711914 78.1992188,300.974609 C74.2910156,299.237305 70.7509766,293.429688 70.7509766,293.429688 L74.7460938,291.790039 L68.2539062,287.131836 L77.4941406,282.310547 L75.9414062,280.507812 L77.2119141,278.46582 C77.2119141,278.46582 82.9990234,276.478516 86.7128906,275.175781 C90.4267578,273.873047 86.0078125,276.978516 86.0078125,271.789062 C86.0078125,266.599609 98.8603516,267.283203 98.8603516,267.283203 L99.21875,264.525391 L99.21875,262.972656 L106.829102,261.160156 L108.544922,259.62793 L110.858398,258.162109 L120.456055,258.683594 L122.693359,258.433594 L130.988281,256.630859 L130.988281,254.458984 L143.875977,256.272461 L145.515625,255.838867 L150.986328,255.154297 L152.886719,255.317383 L157.979492,256.067383 L159.68457,253.070312 L176.261719,257.325195 L176.869141,253.795898 L183.166992,258.138672 L183.166992,255.022461 L190.202148,259.798828 L189.691406,256.867188 L192.623047,259.354492 L201.699219,266.910156 L212.521484,275.212891 C212.521484,275.212891 215.802677,282.800718 220.661133,290.108398 C220.934672,290.519833 221.182348,290.890561 221.406204,291.223861 C224.043417,291.274512 229.308812,290.822278 225.34375,285.943359 C220.191407,279.603518 177.65625,207.128906 177.65625,207.128906 L177.484321,207.093717 L173.448598,207.30522 C173.448598,207.30522 170.304053,208.898734 168.694934,208.983065 C167.085814,209.067395 146.104814,219.720094 146.104814,219.720094 L139.820524,221.412636 L135.848718,222.428537 C135.848718,222.428537 132.388462,226.320044 132.453882,227.568331 C132.519302,228.816618 129.053858,229.045174 129.053858,229.045174 L126.824495,229.16201 C126.824495,229.16201 124.837789,231.427293 121.76533,228.555838 C118.69287,225.684383 113.950387,231.997878 113.85977,230.268806 C113.769153,228.539733 110.297197,232.189333 110.297197,232.189333 L106.85399,231.442733 L103.127442,232.380261 L97.4648707,230.877683 L93.7560932,231.072051 C93.7560932,231.072051 87.3112854,233.079089 85.3969204,233.179417 C83.4825554,233.279745 80.0577437,232.902805 80.0577437,232.902805 L81.3530862,230.357891 L78.2635761,230.519806 L73.1855839,230.785932 C72.0172654,230.847161 68.6643897,229.659681 68.6643897,229.659681 L68.8179465,226.730638 C68.8179465,226.730638 67.3056459,227.430863 65.8164786,227.508907 C64.3273113,227.586951 60.6263357,227.780911 60.6263357,227.780911 C60.6263357,227.780911 56.9713296,227.601836 58.5740319,226.144867 C60.1767343,224.687898 59.8626281,223.471224 58.1325804,223.561892 C56.4025328,223.65256 54.4493758,223.012692 53.080161,223.08445 L48.5102607,223.323948 L50.1302699,221.133623 L49.7894846,219.407882 C49.7894846,219.407882 47.2163957,219.47819 44.9402225,219.597479 C42.6640494,219.716769 39.3248819,219.891767 39.3248819,219.891767 L38.5019949,216.038928 L40.667196,213.634229 L37.3739055,213.621021 C37.3739055,213.621021 33.2585289,211.916098 31.3431887,212.016477 C29.4278484,212.116856 26.744503,209.225008 26.744503,209.225008 C26.744503,209.225008 31.0519069,206.271896 29.2477422,206.366448 C27.4435776,206.461 20.7784862,201.745745 20.7784862,201.745745 C20.7784862,201.745745 16.5228114,199.677549 18.0514382,198.038661 C19.580065,196.399772 21.1213213,195.207123 21.1213213,195.207123 C21.1213213,195.207123 18.0221004,195.183744 16.2338903,194.164607 C14.4456803,193.14547 8.3879009,187.460578 8.3879009,187.460578 C8.3879009,187.460578 13.6302988,185.330754 11.5569722,185.439413 C9.48364564,185.548071 8.92852685,181.486597 8.92852685,181.486597 L8.43916773,179.221017 C8.43916773,179.221017 6.79071183,177.323244 5.43124936,177.394491 C4.07178689,177.465737 0.928939996,171.683821 0.928940095,171.683821 C0.928940194,171.683821 8.97227429,169.222382 8.97227429,169.222382 C8.97227429,169.222382 6.23101453,168.938702 4.15093081,167.127114 C2.07084708,165.315526 3.77431784,164.717741 3.67690345,162.858964 C3.57948907,161.000187 12.3538943,160.975506 12.1978064,157.997172 C12.0417185,155.018837 12.6000454,155.055096 12.6000454,155.055096 C12.6000454,155.055096 17.0818524,154.198268 18.4500919,154.126562 C19.8183314,154.054856 21.274286,152.615356 21.274286,152.615356 L21.5440325,150.671817 L26.0027159,150.623949 C26.0027159,150.623949 30.828016,149.249411 34.7807085,150.163914 C38.7334009,151.078416 36.8016961,150.679944 36.8016961,150.679944 L38.7458609,148.834455 C38.7458609,148.834455 39.4046389,147.24213 43.4196368,147.031713 C47.4346346,146.821296 45.182617,146.337909 43.905611,144.455874 C42.628605,142.573839 52.5182531,145.953465 53.9418609,144.792407 C55.3654687,143.631349 54.5254943,141.598305 56.7548567,141.481469 C58.9842192,141.364633 68.5684922,145.112308 68.5684922,145.112308 L69.7632111,143.129094 C69.7632111,143.129094 74.1144308,142.094287 75.3539407,142.029327 C76.5934506,141.964367 76.6164487,140.10808 76.6164487,140.10808 C76.6164487,140.10808 81.3638381,143.087337 83.8531127,144.384617 C86.3423873,145.681898 85.5298865,143.128148 85.445505,141.518052 C85.3611235,139.907957 86.8604327,138.773247 86.8604327,138.773247 C86.8604327,138.773247 94.9015778,143.360646 96.6868746,144.324195 C98.4721714,145.287745 98.3284883,140.083054 98.3867018,141.193834 C98.4449154,142.304614 105.528662,147.563156 105.428284,145.647816 C105.327905,143.732476 108.037008,145.511099 108.037008,145.511099 C108.037008,145.511099 116.327566,152.562454 117.937661,152.478073 C119.547756,152.393691 128.82406,153.64234 128.82406,153.64234 L134.207013,160.613335 C134.207013,160.613335 141.077413,165.32761 142.252558,165.266023 C143.427703,165.204437 154.697233,174.761522 154.781615,176.371617 C154.865996,177.981712 171.322546,204.019408 171.322546,204.019408 L172.226563,203.933348 L172.226562,202.664062 C172.226562,202.664062 175.191406,201.164064 175.191406,201.164062 C175.191407,201.164061 159.351562,161.980469 156.757812,159.128906 C156.457438,158.798676 156.26142,158.354109 156.149617,157.842489 L154.213867,157.120117 L138.852539,152.516602 L133.402344,150.954102 L123.098633,147.37207 L119.482422,144.864258 L118.09375,143.745117 L109.918945,139.327148 L108.463867,136.329102 L99.5292969,129.086914 L99.2685547,125.863281 C99.2685547,125.863281 95.0126953,121.172852 95.0126953,119.457031 C95.0126953,117.741211 87.9892578,111.922852 87.9892578,111.922852 L91.1914062,109.348633 L85.3183594,103.419922 L84.8740234,98.1875 L87.1708984,96.5673828 C87.1708984,96.5673828 79.0830078,90.2861328 79.0830078,87.7949219 C79.0830078,85.3037109 83.5302734,85.0537109 83.5302734,85.0537109 C83.5302734,85.0537109 79.7685547,80.1816406 79.7685547,79.0605469 C79.7685547,77.9394531 78.9628906,74.9667969 78.9628906,74.9667969 L76.9248047,68.4726562 L81.2041016,66.7314453 L76.7480469,56.6533203 L81.1396484,54.6708984 L76.3046875,44.9072266 L84.0947266,43.6669922 L81.4267578,38.1796875 L81.0566406,31.3710938 L84.3916016,29.0927734 L84.0859375,23.2753906 L85.6416016,17.7080078 L87.1328125,16.6523438 L87.7529297,10.4736328 L91.5966797,10.0380859 L91.8154297,0.833007812 C91.8154297,0.833007812 96.9394531,8.26277876 98.5029297,5.93652344 C100.066406,3.61026812 100.03418,1.41992188 100.03418,1.41992188 C100.03418,1.41992188 106.513672,4.2421875 107.524414,5.7734375 C108.535156,7.3046875 115.038086,4.78613281 115.038086,4.78613281 L117.958984,9.50976562 L124.27832,12.1044922 L126.949219,16.8291016 L130.749023,18.7285156 L135.591797,23.5712891 L140.923828,20.8896484 L141.357422,25.3291016 L142.49707,29.4873047 L145.700195,28.9658203 L148.03418,31.5615234 L148.294922,34.9267578 L152.692383,36.1425781 L155.645508,45.0908203 L155.395508,48.9882812 L158.316406,52.2568359 L162.398438,60.1943359 C162.398438,60.1943359 165.830078,59.9570312 165.830078,67.0019531 C165.830078,74.046875 167.056641,73.015625 167.056641,73.015625 L169.945312,71.3105469 L170.390625,87.3457031 L173.041016,87.0292969 C173.041016,87.0292969 171.825195,105.364258 171.825195,108.393555 C171.825195,111.422852 169.164062,127.023438 169.164062,127.023438 L166.124023,136.794922 L162.042969,148.334961 L159.307732,153.912946 C159.33626,154.361028 159.351562,154.868889 159.351562,155.441406 C159.351562,165.448235 178.386191,195.626771 180.315427,198.659787 L182.283203,194 L177.636719,170.009766 L178.677734,160.498047 L179.873047,154.503906 L181.783203,147.056641 L182.783203,133.417969 L183.978516,129.945313 L184.5,119.390625 L190.710938,104.822266 L196.136719,103.695313 L198.046875,91.1640625 L202.108398,91.4042969 L204.094727,84.8457031 L205.453125,85.7695313 C205.453125,85.7695313 209.339844,77.6591797 210.892578,77.6591797 C212.445312,77.6591797 217.114258,67.1162109 217.114258,67.1162109 C217.114258,67.1162109 218.97168,64.8583983 220.785156,68.6796875 C222.598633,72.5009767 226.884766,54.4443359 229.535156,57.6367188 C232.185547,60.8291016 240.935547,49.0703125 240.935547,49.0703125 L242.901367,51.2207031 C242.901367,51.2207031 251.349609,44.3808594 251.349609,44.3808594 C251.349609,44.3808594 253.75,47.2578125 253.75,47.2578125 C253.75,47.2578125 261.207031,40.125 263.791992,40.125 C266.376953,40.125 265.161133,45.0546875 265.161133,45.0546875 L274.987305,38.8330078 C274.987305,38.8330078 273.18457,44.7070313 273.18457,46.8886719 C273.18457,49.0703125 278.592773,46.4443359 278.592773,46.4443359 C278.592773,46.4443359 279.547852,50.0703125 279.547852,51.4599609 C279.547852,52.8496094 279.982422,57.3867188 279.982422,57.3867188 C279.982422,57.3867188 278.245117,62.1435547 276.616211,63.7822266 C274.987305,65.4208984 280.188477,65.921875 281.208984,63.6953125 C282.229492,61.46875 280.493164,70.8027344 280.493164,71.8134766 C280.493164,72.8242188 279.537109,74.9746094 279.537109,74.9746094 L284.206055,73.7587891 L280.50293,81.5771484 L285.106445,81.5771484 C285.106445,81.5771484 280.816406,86.4638672 280.816406,88.2880859 C280.816406,90.1123047 283.921875,89.0039063 283.921875,89.0039063 L277.592773,99.046875 L276.029297,101.825195 L279.124023,101.172852 L276.984375,107.599609 L271.96875,114.591797 L269.742188,116.731445 L269.047852,122.723633 L266.529297,128.000977 L262.044922,131.550781 L263.760742,132.061523 C263.760742,132.061523 261.00293,136.719727 261.00293,136.719727 C261.00293,136.719727 251.936523,143.146484 251.936523,143.146484 L249.959961,145.643555 L247.952148,150.12793 C247.952148,150.12793 241.633789,153.253906 240.612305,154.980469 C239.59082,156.707031 242.707031,156.707031 242.707031,156.707031 L240.228516,159.477539 C240.228516,159.477539 235.299805,163.645508 233.99707,165.469727 C232.694336,167.293945 229.535156,165.306641 225.160156,170.941406 C220.785156,176.576172 220.262695,179.757813 218.688477,179.757813 C217.114258,179.757813 217.907227,183.242188 213.151367,186.097656 C208.395508,188.953125 196.931641,194.673828 194.71582,196.411133 C192.5,198.148438 185.237305,199.496094 185.237305,200.65625 C185.237305,201.422554 183.550538,201.773451 182.405285,202.796345 C182.42619,203.584613 182.4375,204.476094 182.4375,205.482422 C182.4375,218.746094 230.496094,286.707031 230.496094,286.707031 L233.179561,282.073676 L232.049471,280.669928 L232.649308,252.765192 L232.261985,235.014194 L233.535953,217.103945 L236.176005,212.698583 L237.081194,214.324809 L238.737083,205.434316 L241.976177,206.005455 L243.812371,195.591883 L246.353877,197.684137 L249.095662,188.135292 L251.104574,188.743374 L262.142678,168.169828 L264.219796,165.393612 L267.859743,168.758442 L275.343113,156.321113 L282.997488,149.921217 L283.901376,154.799752 C283.901376,154.799752 296.71616,142.078827 297.90293,142.288087 C299.0897,142.497346 299.310205,145.689603 299.310205,145.689603 L304.70674,140.588263 L306.118975,144.265335 L313.993812,139.933181 L314.424624,144.992074 L317.981339,144.582968 L318.636882,149.868904 L321.686263,153.461796 L320.269592,163.430721 L319.244687,167.803556 L323.395331,165.713255 L320.389524,177.254332 L325.116165,176.334569 L320.106189,190.046941 L316.415245,193.399328 L318.951513,195.656261 L314.526905,199.429637 C314.526905,199.429637 311.362028,203.302176 312.901458,207.146453 C314.440887,210.99073 312.13655,211.102042 312.13655,211.102042 L310.708152,212.825499 L314.869297,212.610234 L312.363172,216.379779 L311.923368,219.875064 L306.472772,227.965553 L302.810062,231.354651 L306.819499,232.061622 L303.063773,236.979275 L296.712032,243.235017 L291.112567,250.285813 L285.977191,256.403014 L282.407814,259.324655 L281.181572,260.840809 L276.499669,264.127543 L270.827977,268.849161 L259.572249,275.230834 L249.058072,280.145751 L241.128192,282.849862 L237.099569,285.193443 C236.115381,286.559755 234.943359,288.897586 234.943359,292.283203 C234.943359,298.119141 280.648438,341.470703 283.019531,345.064453 C285.390625,348.658203 287.355476,340.455076 287.355476,340.455076 L287.977722,341.532142 Z" id="Combined-Shape" fill="url(#linearGradient-1)"></path>
            <g id="lines" transform="translate(15.000000, 10.000000)">
                <path d="M141,144 C141,144 81.1914062,4.19345958 81.1914062,0.888671875" id="Path-33" stroke="url(#linearGradient-2)" stroke-width="0.5"></path>
                <path d="M249.627626,180.135102 C249.627626,180.135102 176.627626,47.8001913 176.627626,44.7978176" id="Path-33" fill="url(#linearGradient-3)" transform="translate(213.127626, 112.466460) rotate(57.000000) translate(-213.127626, -112.466460) "></path>
                <path d="M276,332 L320,237" id="Path-35" stroke="url(#linearGradient-4)" stroke-width="0.5"></path>
                <path d="M223,268 L296,138" id="Path-35" stroke="url(#linearGradient-5)" stroke-width="0.5"></path>
                <path d="M259.5,342 C259.5,342 157.609734,349.171721 151,354" id="Path-37" stroke="url(#linearGradient-6)" stroke-width="0.5"></path>
                <path d="M204.904297,284.5 C204.904297,284.5 161.326381,280.236336 154.627862,280.236336 C147.929343,280.236336 62,280 62,280" id="Path-38" stroke="url(#linearGradient-7)" stroke-width="0.5"></path>
                <path d="M153,195 L1,161" id="Path-39" stroke="url(#linearGradient-8)" stroke-width="0.5"></path>
            </g>
        </g>
    </g>
</svg>