<svg width="871" height="440" viewBox="0 0 871 440" xmlns="http://www.w3.org/2000/svg"><title>Artboard 1</title><g fill="none" fill-rule="evenodd"><path d="M14 204.5l49.25-85.304h98.5L211 204.5l-49.25 85.304h-98.5zM340 204.5l49.25-85.304h98.5L537 204.5l-49.25 85.304h-98.5zM499 300.5l49.25-85.304h98.5L696 300.5l-49.25 85.304h-98.5zM659 204.696l49.25-85.303h98.5L856 204.696 806.75 290h-98.5zM499 107.5l49.25-85.304h98.5L696 107.5l-49.25 85.304h-98.5zM179 301.5l49.25-85.304h98.5L376 301.5l-49.25 85.304h-98.5zM179 107.5l49.25-85.304h98.5L376 107.5l-49.25 85.304h-98.5z"/><text font-family="Futura-Medium, Futura" font-size="20" font-weight="400" fill="#FFF"><tspan x="73.187" y="212">Planning</tspan></text><text font-family="Futura-Medium, Futura" font-size="20" font-weight="400" fill="#FFF"><tspan x="210.969" y="296.5">User &amp; content </tspan> <tspan x="238.464" y="322.5">analytics</tspan></text><text font-family="Futura-Medium, Futura" font-size="20" font-weight="400" fill="#FFF"><tspan x="235.862" y="115.5">Research</tspan></text><text font-family="Futura-Medium, Futura" font-size="20" font-weight="400" fill="#FFF"><tspan x="386.881" y="212.5">Exploration</tspan></text><text font-family="Futura-Medium, Futura" font-size="20" font-weight="400" fill="#FFF"><tspan x="543.498" y="308">User Testing</tspan></text><text font-family="Futura-Medium, Futura" font-size="20" font-weight="400" fill="#FFF"><tspan x="567.189" y="89.5">Design</tspan> <tspan x="590.69" y="115.5">&amp;</tspan> <tspan x="538.835" y="141.5">Development</tspan></text><text font-family="Futura-Medium, Futura" font-size="20" font-weight="400" fill="#FFF"><tspan x="713.928" y="212.5">Feedback</tspan></text><path d="M424.5 301.5l17 61M441.5 363h73.171" stroke="#000" stroke-width="2" stroke-linecap="square"/><path fill="#000" d="M508 368v-11l11 5.5zM431.472 305.625l-10.625 2.847 2.466-12.048z"/><path d="M769.207 96.434l-17-61M752.207 34.934h-73.171" stroke="#000" stroke-width="2" stroke-linecap="square"/><path fill="#000" d="M685.707 29.934v11l-11-5.5zM762.235 92.308l10.625-2.847-2.466 12.05z"/><text font-family="Futura-Medium, Futura" font-size="20" font-weight="400" fill="#3C3C3C"><tspan x="410.153" y="405">Loop &amp; </tspan> <tspan x="404.929" y="431">reiterate</tspan></text><text font-family="Futura-Medium, Futura" font-size="20" font-weight="400" fill="#3C3C3C"><tspan x="781.653" y="30">Loop &amp; </tspan> <tspan x="776.429" y="56">reiterate</tspan></text></g></svg>