<svg width="94" height="43" viewBox="0 0 94 43" xmlns="http://www.w3.org/2000/svg" xmlns:xlink="http://www.w3.org/1999/xlink"><title>planning</title><defs><path id="a" d="M0 0h18v18H0z"/><mask id="i" x="0" y="0" width="18" height="18" fill="#fff"><use xlink:href="#a"/></mask><path id="b" d="M25 0h18v18H25z"/><mask id="j" x="0" y="0" width="18" height="18" fill="#fff"><use xlink:href="#b"/></mask><path id="c" d="M0 25h18v18H0z"/><mask id="k" x="0" y="0" width="18" height="18" fill="#fff"><use xlink:href="#c"/></mask><path id="d" d="M25 25h18v18H25z"/><mask id="l" x="0" y="0" width="18" height="18" fill="#fff"><use xlink:href="#d"/></mask><path id="e" d="M51 0h18v18H51z"/><mask id="m" x="0" y="0" width="18" height="18" fill="#fff"><use xlink:href="#e"/></mask><path id="f" d="M76 0h18v18H76z"/><mask id="n" x="0" y="0" width="18" height="18" fill="#fff"><use xlink:href="#f"/></mask><path id="g" d="M51 25h18v18H51z"/><mask id="o" x="0" y="0" width="18" height="18" fill="#fff"><use xlink:href="#g"/></mask><path id="h" d="M76 25h18v18H76z"/><mask id="p" x="0" y="0" width="18" height="18" fill="#fff"><use xlink:href="#h"/></mask></defs><g stroke-width="2" fill="none" fill-rule="evenodd"><use stroke="#12A9A6" mask="url(#i)" xlink:href="#a"/><use stroke="#12A9A6" mask="url(#j)" xlink:href="#b"/><use stroke="#12A9A6" mask="url(#k)" xlink:href="#c"/><use stroke="#12A9A6" mask="url(#l)" xlink:href="#d"/><use stroke="#D8D8D8" mask="url(#m)" xlink:href="#e"/><use stroke="#D8D8D8" mask="url(#n)" xlink:href="#f"/><use stroke="#D8D8D8" mask="url(#o)" xlink:href="#g"/><use stroke="#D8D8D8" mask="url(#p)" xlink:href="#h"/></g></svg>