<svg width="237" height="176" viewBox="0 0 237 176" xmlns="http://www.w3.org/2000/svg" xmlns:xlink="http://www.w3.org/1999/xlink"><title>Group 12</title><defs><path id="a" d="M0 0h45v45H0z"/><mask id="m" x="0" y="0" width="45" height="45" fill="#fff"><use xlink:href="#a"/></mask><path id="b" d="M63 0h45v45H63z"/><mask id="n" x="0" y="0" width="45" height="45" fill="#fff"><use xlink:href="#b"/></mask><path id="c" d="M0 64h45v45H0z"/><mask id="o" x="0" y="0" width="45" height="45" fill="#fff"><use xlink:href="#c"/></mask><path id="d" d="M63 64h45v45H63z"/><mask id="p" x="0" y="0" width="45" height="45" fill="#fff"><use xlink:href="#d"/></mask><path id="e" d="M128 0h45v45h-45z"/><mask id="q" x="0" y="0" width="45" height="45" fill="#fff"><use xlink:href="#e"/></mask><path id="f" d="M191 0h45.209v45.209H191z"/><mask id="r" x="0" y="0" width="45.209" height="45.209" fill="#fff"><use xlink:href="#f"/></mask><path id="g" d="M128 64h45v45h-45z"/><mask id="s" x="0" y="0" width="45" height="45" fill="#fff"><use xlink:href="#g"/></mask><path id="h" d="M191 64h45v45h-45z"/><mask id="t" x="0" y="0" width="45" height="45" fill="#fff"><use xlink:href="#h"/></mask><path id="i" d="M0 131h45v45H0z"/><mask id="u" x="0" y="0" width="45" height="45" fill="#fff"><use xlink:href="#i"/></mask><path id="j" d="M63 131h45v45H63z"/><mask id="v" x="0" y="0" width="45" height="45" fill="#fff"><use xlink:href="#j"/></mask><path id="k" d="M128 131h45v45h-45z"/><mask id="w" x="0" y="0" width="45" height="45" fill="#fff"><use xlink:href="#k"/></mask><path id="l" d="M191 131h45v45h-45z"/><mask id="x" x="0" y="0" width="45" height="45" fill="#fff"><use xlink:href="#l"/></mask></defs><g stroke-width="2" fill="none" fill-rule="evenodd"><use stroke="#12A9A6" mask="url(#m)" xlink:href="#a"/><use stroke="#12A9A6" mask="url(#n)" xlink:href="#b"/><use stroke="#12A9A6" mask="url(#o)" xlink:href="#c"/><use stroke="#12A9A6" mask="url(#p)" xlink:href="#d"/><use stroke="#D8D8D8" mask="url(#q)" xlink:href="#e"/><use stroke="#D8D8D8" mask="url(#r)" xlink:href="#f"/><use stroke="#D8D8D8" mask="url(#s)" xlink:href="#g"/><use stroke="#D8D8D8" mask="url(#t)" xlink:href="#h"/><use stroke="#12A9A6" mask="url(#u)" xlink:href="#i"/><use stroke="#12A9A6" mask="url(#v)" xlink:href="#j"/><use stroke="#D8D8D8" mask="url(#w)" xlink:href="#k"/><use stroke="#D8D8D8" mask="url(#x)" xlink:href="#l"/></g></svg>