<svg width="342" height="280" viewBox="0 0 342 280" xmlns="http://www.w3.org/2000/svg" xmlns:xlink="http://www.w3.org/1999/xlink"><title>Group 5</title><defs><path id="a" d="M0 0h93.947v57.973H0z"/><mask id="l" x="0" y="0" width="93.947" height="57.973" fill="#fff"><use xlink:href="#a"/></mask><path id="b" d="M22.368 37.459h13.421v13.378H22.368z"/><mask id="m" x="0" y="0" width="13.421" height="13.378" fill="#fff"><use xlink:href="#b"/></mask><path id="c" d="M40.263 37.459h13.421v13.378H40.263z"/><mask id="n" x="0" y="0" width="13.421" height="13.378" fill="#fff"><use xlink:href="#c"/></mask><path id="d" d="M58.158 37.459h13.421v13.378H58.158z"/><mask id="o" x="0" y="0" width="13.421" height="13.378" fill="#fff"><use xlink:href="#d"/></mask><path d="M312.8 162.798l-1.84.925L309 153l8.244 7.564-2.12 1.066 2.93 5.75c.25.49.05 1.094-.437 1.342l-.538.274a.998.998 0 0 1-1.343-.435l-2.936-5.763z" id="e"/><mask id="p" x="-1" y="-1" width="11.162" height="18.105"><path fill="#fff" d="M308 152h11.162v18.105H308z"/><use xlink:href="#e"/></mask><path id="f" d="M64 41h5v26h-5z"/><mask id="q" x="0" y="0" width="5" height="26" fill="#fff"><use xlink:href="#f"/></mask><path id="g" d="M80 41h5v26h-5z"/><mask id="r" x="0" y="0" width="5" height="26" fill="#fff"><use xlink:href="#g"/></mask><path id="h" d="M56 50h5v17h-5z"/><mask id="s" x="0" y="0" width="5" height="17" fill="#fff"><use xlink:href="#h"/></mask><path id="i" d="M89 48h5v19h-5z"/><mask id="t" x="0" y="0" width="5" height="19" fill="#fff"><use xlink:href="#i"/></mask><path id="j" d="M98 54h5v14h-5z"/><mask id="u" x="0" y="0" width="5" height="14" fill="#fff"><use xlink:href="#j"/></mask><path id="k" d="M72 30h5v37h-5z"/><mask id="v" x="0" y="0" width="5" height="37" fill="#fff"><use xlink:href="#k"/></mask></defs><g fill="none" fill-rule="evenodd"><ellipse fill="#E7E7E7" cx="171" cy="135" rx="129.652" ry="129.652"/><ellipse fill="#FFF" cx="157" cy="135" rx="119.55" ry="119.55"/><g stroke="#979797" stroke-linecap="square"><path d="M123.777 58.775h24.855" stroke-width="2"/><path d="M123.339 63.04h25.766M123.339 67.69h25.766"/></g><g stroke="#979797" stroke-linecap="square"><path d="M157.777 58.775h24.855" stroke-width="2"/><path d="M157.339 63.04h25.766M157.339 67.69h25.766"/></g><g stroke="#979797" stroke-linecap="square"><path d="M193.777 58.775h24.855" stroke-width="2"/><path d="M193.339 63.04h25.766M193.339 67.69h25.766"/></g><g transform="translate(162.322 .5)" fill="#12A9A6"><ellipse cx="8.49" cy="4.63" rx="4.683" ry="4.63"/><path d="M.162 16.226S.052 7.27 8.265 7.27s7.967 8.956 7.967 8.956H.162z"/></g><path d="M157.717 16.786a4.59 4.59 0 0 0 1.422-3.323c0-2.557-2.096-4.63-4.682-4.63-2.586 0-4.683 2.073-4.683 4.63 0 1.235.49 2.358 1.287 3.188-5.011 1.945-4.932 8.409-4.932 8.409h16.07s.17-6.182-4.482-8.274zM190.428 16.786a4.59 4.59 0 0 0 1.422-3.323c0-2.557-2.096-4.63-4.682-4.63-2.586 0-4.683 2.073-4.683 4.63 0 1.235.49 2.358 1.287 3.188-5.011 1.945-4.932 8.409-4.932 8.409h16.07s.17-6.182-4.482-8.274z" stroke="#FFF" fill="#D8D8D8"/><path d="M114.5 45.5h114.04" stroke="#979797" stroke-linecap="square"/><path d="M136.5 50a4.5 4.5 0 1 0 0-9 4.5 4.5 0 0 0 0 9zM170.5 50a4.5 4.5 0 1 0 0-9 4.5 4.5 0 0 0 0 9zM205.5 50a4.5 4.5 0 1 0 0-9 4.5 4.5 0 0 0 0 9z" stroke="#FFF" fill="#12A9A6"/><path stroke="#979797" d="M226 42.5l3 3-3 3.5"/><g transform="translate(0 108)"><path d="M36.243 35.15L61.336 8.555M36.632 40.965l25.024 14.42" stroke="#979797" stroke-linecap="square"/><g stroke="#979797" stroke-linecap="square"><path d="M75.467.775h24.855" stroke-width="2"/><path d="M75.03 5.04h25.766M75.03 9.69h25.766M75.03 14.342h25.766M75.03 18.994h25.766"/></g><g stroke="#979797" stroke-linecap="square"><path d="M75.467 49.493h24.855" stroke-width="2"/><path d="M75.03 53.757h25.766M75.03 58.408h25.766M75.03 63.06h25.766M75.03 67.711h25.766"/></g><path d="M63.428 10.73a3.492 3.492 0 0 0 3.496-3.489 3.492 3.492 0 0 0-3.496-3.488 3.492 3.492 0 0 0-3.495 3.488 3.492 3.492 0 0 0 3.495 3.489z" fill="#12A9A6"/><ellipse fill="#12A9A6" cx="63.428" cy="56.082" rx="3.495" ry="3.489"/><g transform="translate(0 7)"><path fill="#D8D8D8" d="M0 3h39v47H0z"/><path fill="#FFF" d="M2 5h35v39H2z"/><path d="M19.497 0c5.5 0 4.003 5 7.003 5S30 7.5 30 7.5H8.994S9 5 12.5 5s1.497-5 6.997-5z" fill="#12A9A6"/><circle fill="#FFF" cx="19.5" cy="3" r="1.25"/></g><g transform="translate(11 22.359)" fill="#D8D8D8"><ellipse cx="8.812" cy="5.657" rx="4.86" ry="5.657"/><path d="M.169 19.829S.054 8.884 8.579 8.884s8.27 10.945 8.27 10.945H.169z"/></g></g><g><g transform="translate(240 115)"><use stroke="#DCDCDC" mask="url(#l)" stroke-width="2" fill="#FFF" xlink:href="#a"/><path fill="#D8D8D8" d="M.895.892h92.158v10.703H.895z"/><path fill="#FFF" d="M6.263 3.568h83.211v5.797H6.263z"/><path stroke="#979797" d="M81.421 41.919l2.684 2.676-2.684 3.121M11.632 47.716l-2.685-2.675 2.685-3.122"/><use stroke="#12A9A6" mask="url(#m)" stroke-width="2" xlink:href="#b"/><use stroke="#12A9A6" mask="url(#n)" stroke-width="2" xlink:href="#c"/><use stroke="#12A9A6" mask="url(#o)" stroke-width="2" xlink:href="#d"/></g><path d="M259.997 133.002h54.159" stroke="#12A9A6" stroke-width="2" stroke-linecap="square"/><path d="M259.997 136.041h54.159M259.997 138.717h54.159M259.997 141.393h54.159" stroke="#979797" stroke-linecap="square"/><path d="M241.342 147.636h91.263" stroke="#DCDCDC" stroke-linecap="square"/><g transform="translate(326.79 165.838)" fill="#12A9A6"><ellipse cx="7.596" cy="4.129" rx="4.19" ry="4.129"/><path d="M.145 14.472s-.098-7.988 7.25-7.988c7.349 0 7.128 7.988 7.128 7.988H.145z"/></g></g><g><use fill="#D8D8D8" xlink:href="#e"/><use stroke="#FFF" mask="url(#p)" stroke-width="2" xlink:href="#e"/></g><path d="M244.751 108.979a1.5 1.5 0 1 1 .875-.488l.811 1.663a.5.5 0 0 1-.234.66.492.492 0 0 1-.665-.221l-.787-1.614z" stroke="#D8D8D8" stroke-width=".5"/><g transform="translate(93 212)"><path fill="#E6E6E6" d="M78 0h26v26H78z"/><g transform="translate(82 5)" fill="#12A9A6"><ellipse cx="8.49" cy="4.63" rx="4.683" ry="4.63"/><path d="M.162 16.226S.052 7.27 8.265 7.27s7.967 8.956 7.967 8.956H.162z"/></g><use stroke="#FFF" mask="url(#q)" stroke-width="2" fill="#12A9A6" xlink:href="#f"/><use stroke="#FFF" mask="url(#r)" stroke-width="2" fill="#12A9A6" xlink:href="#g"/><use stroke="#FFF" mask="url(#s)" stroke-width="2" fill="#12A9A6" xlink:href="#h"/><use stroke="#FFF" mask="url(#t)" stroke-width="2" fill="#12A9A6" xlink:href="#i"/><use stroke="#FFF" mask="url(#u)" stroke-width="2" fill="#12A9A6" xlink:href="#j"/><use stroke="#FFF" mask="url(#v)" stroke-width="2" fill="#12A9A6" xlink:href="#k"/><path d="M117.686 24.884A13.469 13.469 0 0 1 122.5 24c7.456 0 13.5 6.044 13.5 13.5S129.956 51 122.5 51 109 44.956 109 37.5c0-1.723.323-3.37.911-4.885L110 32.5l13 6.5-5.5-14s.082-.049.186-.116z" stroke="#FFF" fill="#12A9A6"/><path stroke="#12A9A6" d="M2.24 52.192l5.138 4.878 7.964-10.784 6.165 6.676 6.68-11.04 12.845 17.202 12.845-26.189"/><ellipse stroke="#979797" fill="#FFF" cx="2.055" cy="52.086" rx="2.055" ry="2.054"/><ellipse stroke="#979797" fill="#FFF" cx="41.095" cy="58.86" rx="2.055" ry="2.054"/><ellipse stroke="#979797" fill="#FFF" cx="53.895" cy="33.054" rx="2.055" ry="2.054"/><ellipse stroke="#979797" fill="#FFF" cx="27.975" cy="41.764" rx="2.055" ry="2.054"/><ellipse stroke="#979797" fill="#FFF" cx="15.175" cy="46.28" rx="2.055" ry="2.054"/></g></g></svg>