<?xml version="1.0" encoding="UTF-8" standalone="no"?>
<svg width="342px" height="280px" viewBox="0 0 342 280" version="1.1" xmlns="http://www.w3.org/2000/svg" xmlns:xlink="http://www.w3.org/1999/xlink">
    <!-- Generator: Sketch 3.7.2 (28276) - http://www.bohemiancoding.com/sketch -->
    <title>Group 5</title>
    <desc>Created with Sketch.</desc>
    <defs>
        <rect id="path-1" x="0" y="0" width="93.9473684" height="57.972973"></rect>
        <mask id="mask-2" maskContentUnits="userSpaceOnUse" maskUnits="objectBoundingBox" x="0" y="0" width="93.9473684" height="57.972973" fill="white">
            <use xlink:href="#path-1"></use>
        </mask>
        <rect id="path-3" x="22.3684211" y="37.4594595" width="13.4210526" height="13.3783784"></rect>
        <mask id="mask-4" maskContentUnits="userSpaceOnUse" maskUnits="objectBoundingBox" x="0" y="0" width="13.4210526" height="13.3783784" fill="white">
            <use xlink:href="#path-3"></use>
        </mask>
        <rect id="path-5" x="40.2631579" y="37.4594595" width="13.4210526" height="13.3783784"></rect>
        <mask id="mask-6" maskContentUnits="userSpaceOnUse" maskUnits="objectBoundingBox" x="0" y="0" width="13.4210526" height="13.3783784" fill="white">
            <use xlink:href="#path-5"></use>
        </mask>
        <rect id="path-7" x="58.1578947" y="37.4594595" width="13.4210526" height="13.3783784"></rect>
        <mask id="mask-8" maskContentUnits="userSpaceOnUse" maskUnits="objectBoundingBox" x="0" y="0" width="13.4210526" height="13.3783784" fill="white">
            <use xlink:href="#path-7"></use>
        </mask>
        <path d="M312.800077,162.798007 L310.959229,163.723457 L309,153 L317.243787,160.564018 L315.124142,161.629629 L318.053919,167.37964 C318.304062,167.870574 318.103135,168.474254 317.617397,168.721749 L317.078613,168.996274 C316.587385,169.246567 315.986197,169.051118 315.736242,168.560555 L312.800077,162.798007 Z" id="path-9"></path>
        <mask id="mask-10" maskContentUnits="userSpaceOnUse" maskUnits="objectBoundingBox" x="-1" y="-1" width="11.1618049" height="18.1052784">
            <rect x="308" y="152" width="11.1618049" height="18.1052784" fill="white"></rect>
            <use xlink:href="#path-9" fill="black"></use>
        </mask>
        <rect id="path-11" x="64" y="41" width="5" height="26"></rect>
        <mask id="mask-12" maskContentUnits="userSpaceOnUse" maskUnits="objectBoundingBox" x="0" y="0" width="5" height="26" fill="white">
            <use xlink:href="#path-11"></use>
        </mask>
        <rect id="path-13" x="80" y="41" width="5" height="26"></rect>
        <mask id="mask-14" maskContentUnits="userSpaceOnUse" maskUnits="objectBoundingBox" x="0" y="0" width="5" height="26" fill="white">
            <use xlink:href="#path-13"></use>
        </mask>
        <rect id="path-15" x="56" y="50" width="5" height="17"></rect>
        <mask id="mask-16" maskContentUnits="userSpaceOnUse" maskUnits="objectBoundingBox" x="0" y="0" width="5" height="17" fill="white">
            <use xlink:href="#path-15"></use>
        </mask>
        <rect id="path-17" x="89" y="48" width="5" height="19"></rect>
        <mask id="mask-18" maskContentUnits="userSpaceOnUse" maskUnits="objectBoundingBox" x="0" y="0" width="5" height="19" fill="white">
            <use xlink:href="#path-17"></use>
        </mask>
        <rect id="path-19" x="98" y="54" width="5" height="14"></rect>
        <mask id="mask-20" maskContentUnits="userSpaceOnUse" maskUnits="objectBoundingBox" x="0" y="0" width="5" height="14" fill="white">
            <use xlink:href="#path-19"></use>
        </mask>
        <rect id="path-21" x="72" y="30" width="5" height="37"></rect>
        <mask id="mask-22" maskContentUnits="userSpaceOnUse" maskUnits="objectBoundingBox" x="0" y="0" width="5" height="37" fill="white">
            <use xlink:href="#path-21"></use>
        </mask>
    </defs>
    <g id="Page-1" stroke="none" stroke-width="1" fill="none" fill-rule="evenodd">
        <g id="Group-5">
            <g id="Group-2">
                <ellipse id="Oval-14" fill="#E7E7E7" cx="171" cy="135" rx="129.652344" ry="129.652344"></ellipse>
                <ellipse id="Oval-14" fill="#FFFFFF" cx="157" cy="135" rx="119.549564" ry="119.549564"></ellipse>
                <g id="middle" transform="translate(114.000000, 0.000000)">
                    <g id="story" transform="translate(9.000000, 58.000000)" stroke="#979797" stroke-linecap="square">
                        <path d="M0.776715614,0.775255542 L25.6316155,0.775255542" id="Line" stroke-width="2"></path>
                        <path d="M0.33856834,5.03916102 L26.1053775,5.03916102" id="Line"></path>
                        <path d="M0.33856834,9.69069428 L26.1053775,9.69069428" id="Line"></path>
                    </g>
                    <g id="story" transform="translate(43.000000, 58.000000)" stroke="#979797" stroke-linecap="square">
                        <path d="M0.776715614,0.775255542 L25.6316155,0.775255542" id="Line" stroke-width="2"></path>
                        <path d="M0.33856834,5.03916102 L26.1053775,5.03916102" id="Line"></path>
                        <path d="M0.33856834,9.69069428 L26.1053775,9.69069428" id="Line"></path>
                    </g>
                    <g id="story" transform="translate(79.000000, 58.000000)" stroke="#979797" stroke-linecap="square">
                        <path d="M0.776715614,0.775255542 L25.6316155,0.775255542" id="Line" stroke-width="2"></path>
                        <path d="M0.33856834,5.03916102 L26.1053775,5.03916102" id="Line"></path>
                        <path d="M0.33856834,9.69069428 L26.1053775,9.69069428" id="Line"></path>
                    </g>
                    <g id="Group-4" transform="translate(31.000000, 0.000000)">
                        <g id="Group-3" transform="translate(17.322266, 0.500000)" fill="#12A9A6">
                            <ellipse id="Oval-1" cx="8.4899055" cy="4.62962963" rx="4.68256687" ry="4.62962963"></ellipse>
                            <path d="M0.162496861,16.2264852 C0.162496861,16.2264852 0.0524753068,7.26996529 8.26525861,7.26996528 C16.4780419,7.26996527 16.2319933,16.2264852 16.2319933,16.2264852 L0.162496861,16.2264852 Z" id="Path-6"></path>
                        </g>
                        <g id="Group-3" transform="translate(0.966797, 8.833333)" stroke="#FFFFFF" fill="#D8D8D8">
                            <path d="M11.750259,7.95266795 C12.6273944,7.11126735 13.1724724,5.93338376 13.1724724,4.62962963 C13.1724724,2.07275579 11.0760158,0 8.4899055,0 C5.90379523,0 3.80733863,2.07275579 3.80733863,4.62962963 C3.80733863,5.8649482 4.29669496,6.9872636 5.09420203,7.81741879 C0.0830974486,9.76282067 0.162496861,16.2264852 0.162496861,16.2264852 L16.2319933,16.2264852 C16.2319933,16.2264852 16.4018104,10.0448993 11.750259,7.95266795 Z" id="Combined-Shape"></path>
                        </g>
                        <g id="Group-3" transform="translate(33.677734, 8.833333)" stroke="#FFFFFF" fill="#D8D8D8">
                            <path d="M11.750259,7.95266795 C12.6273944,7.11126735 13.1724724,5.93338376 13.1724724,4.62962963 C13.1724724,2.07275579 11.0760158,0 8.4899055,0 C5.90379523,0 3.80733863,2.07275579 3.80733863,4.62962963 C3.80733863,5.8649482 4.29669496,6.9872636 5.09420203,7.81741879 C0.0830974486,9.76282067 0.162496861,16.2264852 0.162496861,16.2264852 L16.2319933,16.2264852 C16.2319933,16.2264852 16.4018104,10.0448993 11.750259,7.95266795 Z" id="Combined-Shape"></path>
                        </g>
                    </g>
                    <path d="M0.5,45.5 L114.539467,45.5" id="Line" stroke="#979797" stroke-linecap="square"></path>
                    <path d="M22.5,50 C24.9852814,50 27,47.9852814 27,45.5 C27,43.0147186 24.9852814,41 22.5,41 C20.0147186,41 18,43.0147186 18,45.5 C18,47.9852814 20.0147186,50 22.5,50 Z" id="Oval-2" stroke="#FFFFFF" fill="#12A9A6"></path>
                    <path d="M56.5,50 C58.9852814,50 61,47.9852814 61,45.5 C61,43.0147186 58.9852814,41 56.5,41 C54.0147186,41 52,43.0147186 52,45.5 C52,47.9852814 54.0147186,50 56.5,50 Z" id="Oval-2" stroke="#FFFFFF" fill="#12A9A6"></path>
                    <path d="M91.5,50 C93.9852814,50 96,47.9852814 96,45.5 C96,43.0147186 93.9852814,41 91.5,41 C89.0147186,41 87,43.0147186 87,45.5 C87,47.9852814 89.0147186,50 91.5,50 Z" id="Oval-2" stroke="#FFFFFF" fill="#12A9A6"></path>
                    <polyline id="Path-19" stroke="#979797" points="112 42.5 115 45.5 112 49"></polyline>
                </g>
                <g id="clipboard-group" transform="translate(0.000000, 108.000000)">
                    <path d="M36.2432571,35.1504049 L61.3357482,8.55457134" id="Line" stroke="#979797" stroke-linecap="square"></path>
                    <path d="M36.6316149,40.9648215 L61.6558439,55.3854082" id="Line" stroke="#979797" stroke-linecap="square"></path>
                    <g id="story" transform="translate(74.690679, 0.000000)" stroke="#979797" stroke-linecap="square">
                        <path d="M0.776715614,0.775255542 L25.6316155,0.775255542" id="Line" stroke-width="2"></path>
                        <path d="M0.33856834,5.03916102 L26.1053775,5.03916102" id="Line"></path>
                        <path d="M0.33856834,9.69069428 L26.1053775,9.69069428" id="Line"></path>
                        <path d="M0.33856834,14.3422275 L26.1053775,14.3422275" id="Line"></path>
                        <path d="M0.33856834,18.9937608 L26.1053775,18.9937608" id="Line"></path>
                    </g>
                    <g id="story" transform="translate(74.690679, 48.717377)" stroke="#979797" stroke-linecap="square">
                        <path d="M0.776715614,0.775255542 L25.6316155,0.775255542" id="Line" stroke-width="2"></path>
                        <path d="M0.33856834,5.03916102 L26.1053775,5.03916102" id="Line"></path>
                        <path d="M0.33856834,9.69069428 L26.1053775,9.69069428" id="Line"></path>
                        <path d="M0.33856834,14.3422275 L26.1053775,14.3422275" id="Line"></path>
                        <path d="M0.33856834,18.9937608 L26.1053775,18.9937608" id="Line"></path>
                    </g>
                    <path d="M63.4283032,10.7298553 C65.35866,10.7298553 66.9235234,9.16793352 66.9235234,7.24120536 C66.9235234,5.3144772 65.35866,3.75255542 63.4283032,3.75255542 C61.4979464,3.75255542 59.933083,5.3144772 59.933083,7.24120536 C59.933083,9.16793352 61.4979464,10.7298553 63.4283032,10.7298553 Z" id="Oval-2" fill="#12A9A6"></path>
                    <ellipse id="Oval-2" fill="#12A9A6" cx="63.4283032" cy="56.0823045" rx="3.49522021" ry="3.48864994"></ellipse>
                    <g id="clipboard" transform="translate(0.000000, 7.000000)">
                        <rect id="Rectangle-2" fill="#D8D8D8" x="0" y="3" width="39" height="47"></rect>
                        <rect id="Rectangle-3" fill="#FFFFFF" x="2" y="5" width="35" height="39"></rect>
                        <path d="M19.4970239,0 C24.9970239,-4.38302071e-08 23.4999994,4.99999952 26.4999994,4.99999952 C29.4999994,4.99999952 30,7.5 30,7.5 L8.99404846,7.5 C8.99404846,7.5 9.00000034,4.99999952 12.5000001,4.99999952 C15.9999999,4.99999952 13.9970239,4.38302065e-08 19.4970239,0 Z" id="Path-29" fill="#12A9A6"></path>
                        <circle id="Oval-10" fill="#FFFFFF" cx="19.5" cy="3" r="1.25"></circle>
                    </g>
                    <g id="person" transform="translate(11.000000, 22.358688)" fill="#D8D8D8">
                        <ellipse id="Oval-1" cx="8.81242189" cy="5.65737567" rx="4.86044925" ry="5.65737567"></ellipse>
                        <path d="M0.168669827,19.8286537 C0.168669827,19.8286537 0.0544687503,8.88384775 8.57924107,8.88384774 C17.1040134,8.88384772 16.8486178,19.8286537 16.8486178,19.8286537 L0.168669827,19.8286537 Z" id="Path-6"></path>
                    </g>
                </g>
                <g id="browser" transform="translate(240.000000, 115.000000)">
                    <g>
                        <g>
                            <use id="Rectangle-4" stroke="#DCDCDC" mask="url(#mask-2)" stroke-width="2" fill="#FFFFFF" xlink:href="#path-1"></use>
                            <rect id="Rectangle-4" fill="#D8D8D8" x="0.894736842" y="0.891891892" width="92.1578947" height="10.7027027"></rect>
                            <rect id="Rectangle-4" fill="#FFFFFF" x="6.26315789" y="3.56756757" width="83.2105263" height="5.7972973"></rect>
                            <polyline id="Path-19" stroke="#979797" points="81.4210526 41.9189189 84.1052632 44.5945946 81.4210526 47.7162162"></polyline>
                            <polyline id="Path-19-Copy" stroke="#979797" transform="translate(10.289474, 44.817568) rotate(-180.000000) translate(-10.289474, -44.817568) " points="8.94736842 41.9189189 11.6315789 44.5945946 8.94736842 47.7162162"></polyline>
                            <use id="Rectangle-6" stroke="#12A9A6" mask="url(#mask-4)" stroke-width="2" xlink:href="#path-3"></use>
                            <use id="Rectangle-6" stroke="#12A9A6" mask="url(#mask-6)" stroke-width="2" xlink:href="#path-5"></use>
                            <use id="Rectangle-6" stroke="#12A9A6" mask="url(#mask-8)" stroke-width="2" xlink:href="#path-7"></use>
                        </g>
                        <path d="M19.9970956,18.0015033 L74.1556846,18.0015033" id="Line" stroke="#12A9A6" stroke-width="2" stroke-linecap="square"></path>
                        <path d="M19.9970956,21.0412922 L74.1556846,21.0412922" id="Line" stroke="#979797" stroke-linecap="square"></path>
                        <path d="M19.9970956,23.7169679 L74.1556846,23.7169679" id="Line" stroke="#979797" stroke-linecap="square"></path>
                        <path d="M19.9970956,26.3926435 L74.1556846,26.3926435" id="Line" stroke="#979797" stroke-linecap="square"></path>
                        <path d="M1.34206836,32.6358868 L92.6053041,32.6358868" id="Line" stroke="#DCDCDC" stroke-linecap="square"></path>
                    </g>
                    <g id="Group-3" transform="translate(86.789474, 50.837838)" fill="#12A9A6">
                        <ellipse id="Oval-1" cx="7.59623124" cy="4.12912913" rx="4.1896651" ry="4.12912913"></ellipse>
                        <path d="M0.145391928,14.4722706 C0.145391928,14.4722706 0.0469515903,6.4840231 7.39523139,6.48402309 C14.7435112,6.48402308 14.5233624,14.4722706 14.5233624,14.4722706 L0.145391928,14.4722706 Z" id="Path-6"></path>
                    </g>
                </g>
                <g id="Combined-Shape">
                    <use fill="#D8D8D8" fill-rule="evenodd" xlink:href="#path-9"></use>
                    <use stroke="#FFFFFF" mask="url(#mask-10)" stroke-width="2" xlink:href="#path-9"></use>
                </g>
                <path d="M244.751425,108.979021 C244.669674,108.992817 244.585676,109 244.5,109 C243.671573,109 243,108.328427 243,107.5 C243,106.671573 243.671573,106 244.5,106 C245.328427,106 246,106.671573 246,107.5 C246,107.879864 245.858798,108.226749 245.626018,108.49103 L246.437267,110.154337 C246.556015,110.397806 246.443818,110.696849 246.202882,110.814362 C245.954686,110.935415 245.65921,110.840255 245.538473,110.592708 L244.751425,108.979021 Z" id="Combined-Shape" stroke="#D8D8D8" stroke-width="0.5"></path>
                <g id="Group" transform="translate(93.000000, 212.000000)">
                    <rect id="Rectangle-15" fill="#E6E6E6" x="78" y="0" width="26" height="26"></rect>
                    <g id="Group-3" transform="translate(82.000000, 5.000000)" fill="#12A9A6">
                        <ellipse id="Oval-1" cx="8.4899055" cy="4.62962963" rx="4.68256687" ry="4.62962963"></ellipse>
                        <path d="M0.162496861,16.2264852 C0.162496861,16.2264852 0.0524753068,7.26996529 8.26525861,7.26996528 C16.4780419,7.26996527 16.2319933,16.2264852 16.2319933,16.2264852 L0.162496861,16.2264852 Z" id="Path-6"></path>
                    </g>
                    <use id="Rectangle-10" stroke="#FFFFFF" mask="url(#mask-12)" stroke-width="2" fill="#12A9A6" xlink:href="#path-11"></use>
                    <use id="Rectangle-10" stroke="#FFFFFF" mask="url(#mask-14)" stroke-width="2" fill="#12A9A6" xlink:href="#path-13"></use>
                    <use id="Rectangle-10" stroke="#FFFFFF" mask="url(#mask-16)" stroke-width="2" fill="#12A9A6" xlink:href="#path-15"></use>
                    <use id="Rectangle-10" stroke="#FFFFFF" mask="url(#mask-18)" stroke-width="2" fill="#12A9A6" xlink:href="#path-17"></use>
                    <use id="Rectangle-10" stroke="#FFFFFF" mask="url(#mask-20)" stroke-width="2" fill="#12A9A6" xlink:href="#path-19"></use>
                    <use id="Rectangle-10" stroke="#FFFFFF" mask="url(#mask-22)" stroke-width="2" fill="#12A9A6" xlink:href="#path-21"></use>
                    <path d="M117.685826,24.8836546 C119.181164,24.3127247 120.804062,24 122.5,24 C129.955844,24 136,30.0441559 136,37.5 C136,44.9558441 129.955844,51 122.5,51 C115.044156,51 109,44.9558441 109,37.5 C109,35.7770934 109.322749,34.1295689 109.911086,32.6145886 C109.962436,32.550085 110,32.5 110,32.5 L123,39 L117.5,25 C117.5,25 117.581703,24.9510726 117.685826,24.8836546 Z" id="Combined-Shape" stroke="#FFFFFF" fill="#12A9A6"></path>
                    <polyline id="Path-195" stroke="#12A9A6" points="2.24 52.191708 7.37798543 57.0699514 15.3418629 46.2864659 21.5074454 52.9619569 28.1868265 41.9217218 41.0317899 59.1239488 53.8767538 32.9354839"></polyline>
                    <ellipse id="Oval-5" stroke="#979797" fill="#FFFFFF" cx="2.05519418" cy="52.0862553" rx="2.05519418" ry="2.05399724"></ellipse>
                    <ellipse id="Oval-5-Copy-3" stroke="#979797" fill="#FFFFFF" cx="41.0951942" cy="58.8604489" rx="2.05519418" ry="2.05399724"></ellipse>
                    <ellipse id="Oval-5-Copy-4" stroke="#979797" fill="#FFFFFF" cx="53.8951942" cy="33.0539972" rx="2.05519418" ry="2.05399724"></ellipse>
                    <ellipse id="Oval-5-Copy-2" stroke="#979797" fill="#FFFFFF" cx="27.9751942" cy="41.7636747" rx="2.05519418" ry="2.05399724"></ellipse>
                    <ellipse id="Oval-5-Copy" stroke="#979797" fill="#FFFFFF" cx="15.1751942" cy="46.2798037" rx="2.05519418" ry="2.05399724"></ellipse>
                </g>
            </g>
        </g>
    </g>
</svg>