<svg width="110" height="67" viewBox="0 0 110 67" xmlns="http://www.w3.org/2000/svg"><title>research</title><g fill="none" fill-rule="evenodd"><path d="M54.5 19h24" stroke="#12A9A6" stroke-width="5" stroke-linecap="square"/><path d="M50.994 27h28M54.067 33h25M54 39h25" stroke="#979797" stroke-width="4" stroke-linecap="square"/><rect fill="#D8D8D8" transform="rotate(-45 97.033 54.032)" x="93.533" y="38.152" width="7" height="31.76" rx="3.5"/><g stroke-linecap="square"><path d="M1 19h51" stroke="#12A9A6" stroke-width="2"/><path d="M.5 27h51.65M.5 33h51.189M.5 39h51.052" stroke="#979797"/></g><path d="M72 52c14.36 0 26-11.64 26-26S86.36 0 72 0 46 11.64 46 26s11.64 26 26 26zm0-6c11.046 0 20-8.954 20-20S83.046 6 72 6s-20 8.954-20 20 8.954 20 20 20z" fill="#D8D8D8"/></g></svg>