<svg width="479" height="322" viewBox="0 0 479 322" xmlns="http://www.w3.org/2000/svg"><title>clipboard group</title><g transform="translate(0 -2)" fill="none" fill-rule="evenodd"><path d="M171.864 168.143L292.277 40.72M174 194l118 69" stroke="#979797" stroke-linecap="square"/><g stroke="#979797" stroke-linecap="square"><path d="M358.66 3.73h117.124" stroke-width="2"/><path d="M356.595 24.248h121.421M356.595 46.63h121.421M356.595 69.013h121.421M356.595 91.396h121.421"/></g><g stroke="#979797" stroke-linecap="square"><path d="M358.66 235.73h117.124" stroke-width="2"/><path d="M356.595 256.248h121.421M356.595 278.63h121.421M356.595 301.013h121.421M356.595 323.396h121.421"/></g><path d="M302.5 51c9.113 0 16.5-7.387 16.5-16.5S311.613 18 302.5 18 286 25.387 286 34.5 293.387 51 302.5 51z" fill="#12A9A6"/><ellipse fill="#12A9A6" cx="302.5" cy="266.5" rx="16.5" ry="16.5"/><g transform="translate(0 33)"><path fill="#D8D8D8" d="M0 14.34h185V239H0z"/><path fill="#FFF" d="M9.487 23.9h166.026v186.42H9.487z"/><path d="M92.486 0c26.09 0 18.988 23.9 33.22 23.9 14.23 0 16.602 11.95 16.602 11.95H42.664s.028-11.95 16.63-11.95C75.898 23.9 66.397 0 92.487 0z" fill="#12A9A6"/><ellipse fill="#FFF" cx="92.5" cy="14.34" rx="5.929" ry="5.975"/></g><g transform="translate(50 105)" fill="#D8D8D8"><ellipse cx="44" cy="27" rx="25" ry="27"/><path d="M0 96s-.582-53 42.858-53 42.138 53 42.138 53H0z"/></g></g></svg>