<svg width="236" height="143" viewBox="0 0 236 143" xmlns="http://www.w3.org/2000/svg"><title>research</title><g transform="translate(2)" fill="none" fill-rule="evenodd"><path d="M115 40h51" stroke="#12A9A6" stroke-width="10.676" stroke-linecap="square"/><path d="M108 57h60M114 70h53M114 84h53" stroke="#979797" stroke-width="8.541" stroke-linecap="square"/><rect fill="#D8D8D8" transform="rotate(-45 207.345 116.345)" x="199.85" y="82.34" width="14.991" height="67.81" rx="7.495"/><path d="M1 40h109" stroke="#12A9A6" stroke-width="4.27" stroke-linecap="square"/><path d="M0 57h110M0 70h109M0 84h109" stroke="#979797" stroke-width="2.135" stroke-linecap="square"/><path d="M152.5 112c30.652 0 55.5-25.072 55.5-56S183.152 0 152.5 0 97 25.072 97 56s24.848 56 55.5 56zm0-13c23.472 0 42.5-19.252 42.5-43s-19.028-43-42.5-43S110 32.252 110 56s19.028 43 42.5 43z" fill="#D8D8D8"/></g></svg>