<?xml version="1.0" encoding="UTF-8" standalone="no"?>
<svg width="606px" height="548px" viewBox="0 0 606 548" version="1.1" xmlns="http://www.w3.org/2000/svg" xmlns:xlink="http://www.w3.org/1999/xlink" xmlns:sketch="http://www.bohemiancoding.com/sketch/ns">
    <!-- Generator: Sketch 3.4.4 (17248) - http://www.bohemiancoding.com/sketch -->
    <title>sketch</title>
    <desc>Created with Sketch.</desc>
    <defs></defs>
    <g id="Page-1" stroke="none" stroke-width="1" fill="none" fill-rule="evenodd" sketch:type="MSPage">
        <g id="sketch" sketch:type="MSLayerGroup" fill="#167F7D">
            <g id="Page-1" sketch:type="MSShapeGroup">
                <path d="M520.043,45.322 L414.192,0 L191.702,0 L85.851,45.322 L0,143.216 L302.963,547.563 L605.894,143.216 L520.043,45.322 L520.043,45.322 Z M569.47,147.308 L489.499,208.965 L425.853,116.529 L515.399,73.966 L569.47,147.308 L569.47,147.308 Z M450.805,227.258 L155.089,227.258 L215.683,119.994 L390.212,119.994 L450.805,227.258 L450.805,227.258 Z M389.967773,20.045166 L471.788,55.193 L389.633,93.781 L216.261,93.781 L134.106,55.193 L215.016357,20.0214844 L389.967773,20.045166 L389.967773,20.045166 Z M89.495,73.966 L179.041,116.529 L115.395,208.965 L35.425,147.308 L89.495,73.966 L89.495,73.966 Z M67.96,207.936 L119.201,248.008 L241.653,446.983 L67.96,207.936 L67.96,207.936 Z M162.204,259.939 L443.691,259.939 L302.963,509.969 L162.204,259.939 L162.204,259.939 Z M363.241,446.983 L485.693,248.008 L536.934,207.936 L363.241,446.983 L363.241,446.983 Z" id="symbol"></path>
            </g>
        </g>
    </g>
</svg>