<svg width="147" viewBox="0 0 227 254" xmlns="http://www.w3.org/2000/svg"><title>design</title><g fill="none" fill-rule="evenodd"><g transform="translate(2 1)"><rect stroke="#979797" stroke-width="2" fill="#FFF" y="1" width="38" height="201" rx="10"/><path d="M.5 15.5h14M.5 15.5h14M.5 27.5h14M.5 18.5h8M.5 21.5h8M.5 27.5h14M.5 18.5h8M.5 21.5h8M.5 24.5h8M.5 39.5h14M.5 30.5h8M.5 33.5h8M.5 36.5h8M.5 51.5h14M.5 42.5h8M.5 45.5h8M.5 48.5h8M.5 63.5h14M.5 54.5h8M.5 57.5h8M.5 60.5h8M.5 75.5h14M.5 66.5h8M.5 69.5h8M.5 72.5h8M.5 87.5h14M.5 78.5h8M.5 81.5h8M.5 84.5h8M.5 99.5h14M.5 90.5h8M.5 93.5h8M.5 96.5h8M.5 111.5h14M.5 102.5h8M.5 105.5h8M.5 108.5h8M.5 123.5h14M.5 114.5h8M.5 117.5h8M.5 120.5h8M.5 135.5h14M.5 126.5h8M.5 129.5h8M.5 132.5h8M.5 147.5h14M.5 138.5h8M.5 141.5h8M.5 144.5h8M.5 159.5h14M.5 150.5h8M.5 153.5h8M.5 156.5h8M.5 171.5h14M.5 162.5h8M.5 165.5h8M.5 168.5h8M.5 183.5h14M.5 174.5h8M.5 177.5h8M.5 180.5h8" stroke="#000" stroke-linecap="square"/></g><path d="M58 145.312V38a9 9 0 0 1 9-9c4.97 0 9 4.027 9 9.007v107.928c0 4.306-1.046 11.68-2.497 16.436C73.503 162.371 71 174 67 174s-6.503-11.629-6.503-11.629C59.118 157.6 58 149.697 58 145.312c0 0 0 .208 0 0z" stroke="#979797" stroke-width="2" fill="#FFF"/><path d="M58.5 143.653s7.438-11.688 17 0M58.5 150.653s7.438-11.688 17 0" stroke="#000"/><path d="M85 115.715V41.5c0-3.314 2.693-6 6-6 3.314 0 6 2.68 6 6.003v74.642c0 2.97-.675 7.973-1.61 11.163 0 0-1.723 8.192-4.39 8.192s-4.392-8.202-4.392-8.202C85.72 124.108 85 118.84 85 115.715c0 0 0 .143 0 0z" stroke="#979797" stroke-width="2" fill="#FFF"/><path d="M85.744 114.675s4.599-7.226 10.512 0M85.744 122.19s4.599-7.227 10.512 0" stroke="#000"/><g><g stroke="#000" stroke-linecap="square"><path d="M112.459 139.265l8.082 4.666M115.459 134.069l4.618 2.666M114.459 135.8l4.618 2.667M113.459 137.533l4.618 2.666M108.459 146.265l8.082 4.666M111.459 141.069l4.618 2.666M110.459 142.8l4.618 2.667M109.459 144.533l4.618 2.666M104.459 153.265l8.082 4.666M107.459 148.069l4.618 2.666M106.459 149.8l4.618 2.667M105.459 151.533l4.618 2.666M100.459 160.265l8.082 4.666M103.459 155.069l4.618 2.666M102.459 156.8l4.618 2.667M101.459 158.533l4.618 2.666M96.459 167.265l8.082 4.666M99.459 162.069l4.618 2.666M98.459 163.8l4.618 2.667M97.459 165.533l4.618 2.666M92.459 174.265l8.082 4.666M95.459 169.069l4.618 2.666M94.459 170.8l4.618 2.667M93.459 172.533l4.618 2.666"/></g><path d="M129.5 109l94.5 82-142 1 47.5-83zm4.602 20L192 179.386 105 180l29.102-51z" stroke="#979797" stroke-width="2"/></g><g><path d="M177.783 40.46c10.294 12.57 9.576 31.143-2.156 42.875-11.731 11.73-30.305 12.45-42.874 2.155l45.03-45.03zm-7.116-6.441c-12.426-8.245-29.342-6.892-40.294 4.06-10.953 10.953-12.306 27.87-4.061 40.296l44.355-44.356zm11.324 54.972c16.012-16.011 16.012-41.97 0-57.982-16.011-16.012-41.97-16.012-57.982 0-16.012 16.011-16.012 41.97 0 57.982 16.011 16.012 41.97 16.012 57.982 0z" stroke="#979797" stroke-width="2"/><path d="M140.24 64.694l4.245 4.1M143.36 61.575l2.482 2.396M145.037 59.84l2.481 2.396M141.632 63.259l2.481 2.396M147.267 57.857l4.387 3.95M150.278 54.63l2.564 2.309M151.893 52.838l2.563 2.308M148.61 56.374l2.563 2.308" stroke="#000" stroke-linecap="square"/></g></g></svg>